<svg width="506" height="86" viewBox="0 0 506 86" fill="none" xmlns="http://www.w3.org/2000/svg">
<path fill-rule="evenodd" clip-rule="evenodd" d="M165.566 1.01245C164.957 1.61973 164.457 7.28767 164.457 13.6084C164.457 22.8437 164.892 25.0983 166.675 25.0983C168.154 25.0983 168.893 23.6314 168.893 20.6977C168.893 16.9821 169.469 16.2971 172.59 16.2971C176.528 16.2971 182.202 11.7 182.202 8.50956C182.202 4.74414 178.415 1.71214 172.59 0.817355C169.337 0.317156 166.175 0.405166 165.566 1.01245ZM184.668 1.14006C182.793 2.99857 183.693 4.56225 186.639 4.56225C189.786 4.56225 189.969 5.19593 190.268 17.0217C190.411 22.6765 191.031 24.4573 192.983 24.8298C195.176 25.2494 195.512 23.938 195.512 14.9373C195.512 5.54064 195.791 4.56225 198.469 4.56225C200.112 4.56225 201.427 3.58385 201.427 2.36196C201.427 0.680936 199.565 0.161668 193.541 0.161668C189.202 0.161668 185.209 0.601725 184.668 1.14006ZM220.06 11.455C217.945 17.7537 216.215 23.4011 216.215 24.0025C216.215 26.4537 220.362 24.8871 221.08 22.1646C221.638 20.0464 223.097 19.2308 226.329 19.2308C229.505 19.2308 231.076 20.0816 231.742 22.1646C232.897 25.7745 236.961 26.0693 236.806 22.5313C236.583 17.4427 228.745 0.927369 226.334 0.466775C224.487 0.114728 222.984 2.74774 220.06 11.455ZM240.862 1.14006C240.32 1.67693 239.876 7.28767 239.876 13.6084C239.876 22.8437 240.311 25.0983 242.094 25.0983C243.644 25.0983 244.312 23.5493 244.312 19.9643C244.312 16.3279 244.975 14.8303 246.581 14.8303C247.827 14.8303 250.223 17.1406 251.903 19.9643C253.713 23.008 256.116 25.0983 257.805 25.0983C260.482 25.0983 260.519 24.8372 258.41 20.7901C257.175 18.4211 255.517 16.0874 254.729 15.6033C253.919 15.106 254.557 13.469 256.196 11.8437C259.847 8.22206 259.838 6.76107 256.143 3.09539C253.249 0.224743 243.095 -1.0749 240.862 1.14006ZM261.566 1.14006C259.554 3.13352 260.686 4.56225 264.276 4.56225C267.868 4.56225 267.973 4.85562 267.973 14.8303C267.973 22.9801 268.432 25.0983 270.191 25.0983C271.951 25.0983 272.41 22.9801 272.41 14.8303C272.41 5.54064 272.691 4.56225 275.367 4.56225C277.01 4.56225 278.325 3.58385 278.325 2.36196C278.325 0.680936 276.463 0.161668 270.438 0.161668C266.1 0.161668 262.107 0.601725 261.566 1.14006ZM282.143 11.5342C280.043 17.7904 278.325 23.4011 278.325 24.0025C278.325 26.4537 282.471 24.8871 283.19 22.1646C284.289 17.9972 293.064 17.9972 294.163 22.1646C295.003 25.3491 299.024 26.2571 299.035 23.2647C299.038 22.257 297.286 16.6462 295.14 10.7964C289.806 -3.74165 287.223 -3.59496 282.143 11.5342ZM302.296 12.1459C302.57 19.8029 303.362 24.3384 304.492 24.7096C305.68 25.0983 306.409 22.7557 306.71 17.5865L307.161 9.88401L311.366 17.5733C317.401 28.6129 320.352 27.5259 320.851 14.0807C321.061 8.44209 320.635 2.91936 319.907 1.80748C317.658 -1.6279 315.296 1.49798 315.267 7.94922L315.239 14.0968L310.827 7.12925C303.994 -3.66684 301.776 -2.3628 302.296 12.1459ZM325.476 1.14006C325.383 1.81188 325.431 6.65252 325.583 11.8965C325.889 22.4286 327.736 25.0983 334.717 25.0983C340.754 25.0983 343.392 20.3148 343.392 9.36914C343.392 2.16246 342.91 0.161668 341.174 0.161668C339.462 0.161668 338.951 2.08619 338.934 8.59611C338.907 18.2304 337.569 21.2096 333.602 20.4615C331.324 20.0317 330.689 18.2422 330.083 10.5309C329.638 4.87322 328.607 0.883364 327.495 0.521049C326.479 0.188072 325.57 0.466774 325.476 1.14006ZM349.603 1.9219C347.284 4.22194 347.33 9.65958 349.686 11.5988C350.706 12.4393 353.368 13.582 355.601 14.1379C357.833 14.6938 359.659 16.0874 359.659 17.2359C359.659 20.4674 355.407 21.3182 352.463 18.6749C349.491 16.0082 346.35 15.5388 346.35 17.764C346.35 20.5686 352.287 25.0983 355.962 25.0983C359.43 25.0983 365.574 20.6185 365.574 18.0911C365.574 15.175 360.703 10.5676 356.7 9.69625C354.26 9.16378 352.265 7.79227 352.265 6.64665C352.265 4.09432 355.751 3.9491 359.612 6.34008C363.612 8.81761 365.128 6.65839 361.886 3.10419C358.905 -0.162507 352.342 -0.794724 349.603 1.9219ZM370.988 11.5298C368.805 17.7831 367.026 23.3923 367.035 23.9981C367.074 26.4185 371.35 24.9076 372.229 22.1646C372.882 20.1198 374.466 19.2308 377.452 19.2308C380.223 19.2308 382.297 20.2664 383.32 22.1646C384.191 23.7781 385.628 25.0983 386.514 25.0983C388.543 25.0983 387.478 19.5902 383.317 8.55797C378.767 -3.50548 376.007 -2.84099 370.988 11.5298ZM399.258 1.26181C398.982 1.86763 398.995 7.4769 399.288 13.7301L399.82 25.0983H404.783C413.345 25.0983 417.332 22.807 417.332 17.8872C417.332 15.4947 416.665 13.1272 415.849 12.627C414.891 12.0388 414.866 10.7935 415.78 9.10071C418.307 4.41409 413.771 0.161668 406.244 0.161668C402.679 0.161668 399.535 0.655999 399.258 1.26181ZM421.769 12.63V25.0983H429.902C436.146 25.0983 438.036 24.5878 438.036 22.898C438.036 21.3094 436.393 20.6977 432.12 20.6977C426.797 20.6977 426.205 20.331 426.205 17.0306C426.205 13.8181 426.845 13.3634 431.381 13.3634C434.228 13.3634 436.557 12.7033 436.557 11.8965C436.557 11.0898 434.228 10.4297 431.381 10.4297C427.192 10.4297 426.205 9.87081 426.205 7.49596C426.205 5.05071 427.192 4.56225 432.12 4.56225C436.393 4.56225 438.036 3.95057 438.036 2.36196C438.036 0.672135 436.146 0.161668 429.902 0.161668H421.769V12.63ZM440.993 2.36196C440.993 3.57212 442.293 4.56225 443.883 4.56225C446.419 4.56225 446.827 5.76507 447.21 14.3462C447.488 20.5407 448.327 24.3531 449.496 24.7374C450.858 25.1834 451.345 22.6105 451.345 14.952C451.345 4.84682 451.447 4.56225 455.042 4.56225C457.343 4.56225 458.739 3.73054 458.739 2.36196C458.739 0.650132 456.768 0.161668 449.866 0.161668C442.964 0.161668 440.993 0.650132 440.993 2.36196ZM463.455 3.15259C458.805 7.44756 459.005 16.6932 463.848 21.4971C469.963 27.5641 477.912 25.6938 480.786 17.5146C485.149 5.10205 472.598 -5.29798 463.455 3.15259ZM485.357 12.7517C485.357 22.1675 485.823 25.1907 487.206 24.7404C488.223 24.4089 489.387 21.0395 489.794 17.255L490.533 10.371L494.686 17.7346C500.997 28.9282 503.103 27.6506 503.103 12.63C503.103 2.73454 502.662 0.161668 500.966 0.161668C499.465 0.161668 498.695 2.23727 498.378 7.12925L497.927 14.0968L493.798 7.12925C487.407 -3.6551 485.357 -2.28945 485.357 12.7517ZM16.748 12.9967C16.8426 17.6364 17.2242 20.2752 17.5953 18.8641C18.425 15.7162 20.4006 15.5329 21.5482 18.4974C22.0155 19.7076 23.1083 20.6977 23.9764 20.6977C25.0914 20.6977 25.0899 19.8381 23.9705 17.764C22.8732 15.7294 22.8569 13.9619 23.9158 11.9978C25.0692 9.86054 24.874 8.60198 23.1231 6.86375C18.4235 2.20354 16.5646 3.99164 16.748 12.9967ZM28.4069 6.02911C28.4069 6.83588 29.0723 7.49596 29.8857 7.49596C30.699 7.49596 31.3645 10.4664 31.3645 14.0968C31.3645 17.7273 32.0299 20.6977 32.8433 20.6977C33.6566 20.6977 34.3221 17.7273 34.3221 14.0968C34.3221 10.4664 34.9876 7.49596 35.8009 7.49596C36.6142 7.49596 37.2797 6.83588 37.2797 6.02911C37.2797 5.22233 35.2833 4.56225 32.8433 4.56225C30.4033 4.56225 28.4069 5.22233 28.4069 6.02911ZM41.234 11.6061C38.0635 20.3823 38.1123 21.1231 41.7161 18.8905C44.0985 17.4149 45.286 17.4369 47.8251 19.0108C50.7841 20.8429 50.9187 20.7344 50.0314 17.2271C48.5186 11.2497 46.4379 6.37822 45.0301 5.51424C44.3114 5.07418 42.6034 7.81427 41.234 11.6061ZM55.8417 6.39582C54.1884 11.7147 53.6649 20.6977 55.0076 20.6977C55.8313 20.6977 56.5042 19.0871 56.5042 17.1171C56.5042 11.6076 59.0891 11.2907 60.3091 16.6506L61.3975 21.4311L63.7133 16.2971L66.0306 11.1631L66.5364 15.9304C66.8159 18.5532 67.6543 20.6977 68.3997 20.6977C69.9775 20.6977 68.5416 7.40502 66.7523 5.45703C66.0942 4.73827 64.6376 6.38262 63.5152 9.10804L61.4759 14.0646L59.8063 9.3134C58.0436 4.29528 56.7822 3.36822 55.8417 6.39582ZM72.771 12.5434C72.771 17.0276 73.4365 20.6977 74.2498 20.6977C75.0632 20.6977 75.7286 17.4369 75.7286 13.4499C75.7286 9.46302 75.0632 5.79441 74.2498 5.29568C73.3315 4.7324 72.771 7.4813 72.771 12.5434ZM80.6264 8.37755C82.747 12.4921 82.7515 13.2358 80.6782 16.1739C77.8152 20.2268 79.3887 22.2526 82.3995 18.3903C84.4757 15.7265 84.6931 15.7118 86.1542 18.1307C87.0075 19.5418 88.3532 20.6977 89.1458 20.6977C89.937 20.6977 89.4771 19.0211 88.1225 16.9704C86.132 13.9575 85.9841 12.539 87.3491 9.56717C89.6471 4.56518 89.3957 3.23621 86.796 6.64372C84.6783 9.42049 84.6044 9.42049 81.4649 6.64372L78.281 3.82882L80.6264 8.37755ZM174.851 6.05111C178.569 8.0255 176.968 11.8965 172.432 11.8965C169.643 11.8965 168.893 11.1191 168.893 8.22939C168.893 4.27474 170.439 3.70853 174.851 6.05111ZM253.664 6.61878C254.757 9.44542 253.423 10.4297 248.502 10.4297C245.299 10.4297 244.312 9.73879 244.312 7.49596C244.312 5.23847 245.299 4.56225 248.59 4.56225C250.943 4.56225 253.227 5.48783 253.664 6.61878ZM411.141 7.12925C410.87 8.54037 409.158 9.90748 407.336 10.1656C404.82 10.5206 404.023 9.90308 404.023 7.59864C404.023 5.31474 404.967 4.56225 407.828 4.56225C410.656 4.56225 411.507 5.22233 411.141 7.12925ZM475.587 6.88282C478.235 13.7287 475.582 20.6977 470.325 20.6977C465.459 20.6977 462.593 10.1275 466.429 6.32248C468.963 3.80828 474.53 4.14859 475.587 6.88282ZM2.72893 12.3117C-0.376562 20.3794 -0.31741 21.1114 3.26721 18.8905C5.63182 17.4251 6.81782 17.4251 9.18243 18.8905C10.8091 19.8983 12.14 20.5041 12.14 20.2386C12.14 18.0764 7.17717 6.02911 6.28693 6.02911C5.65992 6.02911 4.05985 8.85721 2.72893 12.3117ZM21.1667 10.8639C19.2679 12.7473 17.3439 11.2922 18.7488 9.03617C19.293 8.16338 20.4154 7.86415 21.2436 8.37168C22.2536 8.99069 22.2284 9.81067 21.1667 10.8639ZM290.578 11.8731C291.142 14.0147 290.636 14.8303 288.743 14.8303C286.755 14.8303 286.297 13.956 286.832 11.1807C287.622 7.08231 289.401 7.41235 290.578 11.8731ZM379.771 14.4401C379.41 14.7965 378.147 14.8669 376.962 14.5926C375.294 14.2083 375.135 13.2739 376.253 10.4297L377.695 6.76254L379.059 10.2757C379.811 12.209 380.132 14.0822 379.771 14.4401ZM228.474 11.8965C229.048 14.0719 228.519 14.8303 226.428 14.8303C223.316 14.8303 223.21 14.6352 224.507 11.2834C225.74 8.09444 227.546 8.37461 228.474 11.8965ZM7.70362 13.3634C7.70362 14.1702 7.03816 14.8303 6.22482 14.8303C5.41148 14.8303 4.74602 14.1702 4.74602 13.3634C4.74602 12.5566 5.41148 11.8965 6.22482 11.8965C7.03816 11.8965 7.70362 12.5566 7.70362 13.3634ZM46.1525 13.3634C46.1525 14.1702 45.4871 14.8303 44.6737 14.8303C43.8604 14.8303 43.1949 14.1702 43.1949 13.3634C43.1949 12.5566 43.8604 11.8965 44.6737 11.8965C45.4871 11.8965 46.1525 12.5566 46.1525 13.3634ZM411.263 14.7041C414.379 16.6624 412.025 20.6977 407.766 20.6977C404.76 20.6977 404.023 19.976 404.023 17.0306C404.023 13.1844 407.211 12.1606 411.263 14.7041ZM201.427 22.898C201.427 24.1081 202.425 25.0983 203.645 25.0983C204.865 25.0983 205.863 24.1081 205.863 22.898C205.863 21.6878 204.865 20.6977 203.645 20.6977C202.425 20.6977 201.427 21.6878 201.427 22.898ZM166.82 33.5122C166.333 33.9933 165.983 37.084 166.039 40.3786C166.115 44.7366 166.452 45.5859 167.275 43.4986C168.314 40.8656 168.521 40.8347 169.815 43.1274C170.912 45.0725 171.274 44.3567 171.453 39.8872C171.668 34.5507 169.198 31.152 166.82 33.5122ZM175.795 33.411C175.252 33.9478 174.808 36.9182 174.808 40.0118C174.808 44.8774 175.257 45.6284 178.136 45.5903C181.107 45.5492 181.187 45.3849 178.875 44.0501C177.451 43.2272 176.287 41.976 176.287 41.2689C176.287 40.5604 177.451 39.6803 178.875 39.3107C181.34 38.6726 181.34 38.6315 178.875 38.4702C177.451 38.3763 176.287 37.6722 176.287 36.9065C176.287 36.1393 177.451 34.8397 178.875 34.0168C181.067 32.7509 181.105 32.5147 179.122 32.4766C177.834 32.4531 176.336 32.8726 175.795 33.411ZM195.512 39.0334C195.512 44.4124 196.004 45.6343 198.174 45.6343C204.283 45.6343 206.826 36.7657 201.525 33.9508C196.572 31.3222 195.512 32.2169 195.512 39.0334ZM207.261 34.9028C208.119 36.6659 208.848 39.6363 208.879 41.5036C208.927 44.3904 209.262 44.1601 211.097 39.9649C213.707 34.0021 213.818 32.7568 211.535 35.0216C210.223 36.3227 209.321 36.1305 207.756 34.2148C205.914 31.9602 205.862 32.0321 207.261 34.9028ZM234.384 39.0334C234.395 43.0673 234.682 44.543 235.022 42.3133C235.361 40.0837 235.352 36.7833 235.002 34.979C234.651 33.1748 234.373 34.9996 234.384 39.0334ZM239.202 34.6329C239.766 36.2464 240.228 38.2267 240.228 39.0334C240.228 39.8402 239.766 41.8205 239.202 43.434C238.249 46.1521 238.301 46.1712 239.895 43.6981C241.56 41.1179 241.684 41.1179 243.657 43.6981C244.78 45.1664 245.719 45.6754 245.744 44.8275C245.77 43.9812 245.01 42.5128 244.056 41.5667C242.73 40.2509 242.736 38.8882 244.08 35.7726C245.646 32.1451 245.608 31.9911 243.728 34.3688C241.687 36.949 241.56 36.949 239.895 34.3688C238.301 31.8957 238.249 31.9148 239.202 34.6329ZM268.145 38.6667C268.239 42.0948 268.615 43.7773 268.979 42.4028C269.344 41.0284 270.931 39.4999 272.504 39.0041C275.805 37.9641 276.096 36.6762 273.593 34.1928C269.97 30.599 267.967 32.2434 268.145 38.6667ZM277.832 33.411C277.29 33.9478 276.856 36.7539 276.868 39.6451C276.886 43.7582 277.232 44.4227 278.459 42.7006C279.641 41.0445 280.215 40.9536 280.778 42.3339C281.191 43.3431 282.22 44.1675 283.066 44.1675C284.085 44.1675 284.055 43.5132 282.977 42.2253C281.796 40.8142 281.8 39.8402 282.993 38.6565C283.895 37.7617 284.233 35.9956 283.743 34.7311C282.834 32.3798 279.6 31.6566 277.832 33.411ZM287.198 38.3C287.198 43.4575 287.6 44.1469 290.525 43.9973C292.612 43.8902 292.98 43.5939 291.511 43.2037C290.053 42.815 289.169 40.9638 289.169 38.3C289.169 35.6362 290.053 33.785 291.511 33.3963C292.98 33.0061 292.612 32.7098 290.525 32.6027C287.6 32.4531 287.198 33.1425 287.198 38.3ZM297.057 33.411C295.065 35.3854 296.141 37.1339 298.269 35.3824C299.479 34.3864 301.511 33.9669 302.783 34.4524C304.114 34.9585 304.713 34.7165 304.194 33.8833C303.169 32.2389 298.546 31.9324 297.057 33.411ZM319.731 35.0729C319.731 36.5251 320.558 38.5332 321.568 39.5351C323.029 40.9844 322.998 41.6049 321.41 42.5788C320.197 43.3211 319.992 44.1542 320.885 44.7014C321.692 45.1972 323.084 44.7307 323.975 43.6643C325.17 42.2356 325.033 40.9873 323.451 38.9132C320.96 35.6479 320.546 33.3186 322.689 34.6329C323.502 35.1316 324.168 34.8397 324.168 33.986C324.168 33.1323 323.17 32.4326 321.949 32.4326C320.729 32.4326 319.731 33.6207 319.731 35.0729ZM328.529 38.6667L329.27 44.9009L329.796 39.7801C330.086 36.9637 331.102 34.1679 332.051 33.5679C333.134 32.8844 332.66 32.4692 330.784 32.4546C328.125 32.4355 327.871 33.1367 328.529 38.6667ZM339.083 35.733C336.919 41.4142 341.371 46.9472 345.968 44.2921C348.188 43.0101 347.959 42.7827 344.404 42.7446C340.741 42.7065 340.294 42.2136 340.707 38.6667C341.063 35.5878 341.944 34.6593 344.427 34.7414C346.217 34.8016 347.342 34.3058 346.928 33.6413C345.383 31.1608 340.309 32.5133 339.083 35.733ZM352.281 34.6138C349.965 37.3818 351.455 43.5455 354.742 44.7967C356.28 45.382 358.38 44.6207 360.196 42.8194C362.701 40.336 362.889 39.3253 361.435 36.1613C359.526 32.0057 355.091 31.2562 352.281 34.6138ZM364.242 38.3C364.279 44.1748 364.444 44.4975 365.756 41.2381L367.228 37.5754L370.065 41.2381L372.903 44.9009L372.714 38.3C372.579 33.5753 372.343 32.9137 371.886 35.9721L371.247 40.2465L367.724 35.9721L364.202 31.6991L364.242 38.3ZM377.7 34.1928C375.142 36.7305 375.519 42.3295 378.354 43.9034C381.115 45.4348 386.277 44.5063 386.277 42.4776C386.277 41.709 385.075 41.7691 383.475 42.6185C380.108 44.4066 376.852 41.3863 377.711 37.2703C378.097 35.4147 379.459 34.7165 382.302 34.913C384.525 35.0685 385.958 34.5727 385.485 33.8129C384.278 31.8766 379.817 32.0937 377.7 34.1928ZM389.352 38.6667C389.415 42.0948 389.813 44.0486 390.235 43.0057C390.757 41.7178 391.566 41.5755 392.765 42.5627C394.074 43.6408 394.588 42.5246 394.761 38.2237C394.955 33.3846 394.52 32.4326 392.114 32.4326C389.695 32.4326 389.254 33.4271 389.352 38.6667ZM398.108 38.3C398.108 43.4575 398.51 44.1469 401.435 43.9973C403.939 43.8697 404.122 43.6614 402.175 43.1568C400.752 42.7871 399.587 41.907 399.587 41.1985C399.587 40.4915 400.752 39.2403 402.175 38.4174C404.64 36.993 404.64 36.9197 402.175 36.8772C400.752 36.8537 399.587 36.1731 399.587 35.3663C399.587 34.5595 401.543 33.8994 403.934 33.8994C407.886 33.8994 408.325 34.3996 408.766 39.4002L409.249 44.9009L410.002 38.6667L410.756 32.4326H404.431H398.108V38.3ZM414.375 38.3C414.375 43.4575 414.777 44.1469 417.702 43.9973C420.206 43.8697 420.389 43.6614 418.441 43.1568C417.019 42.7871 415.854 41.5916 415.854 40.5003C415.854 39.409 417.019 38.2135 418.441 37.8438C420.907 37.2057 420.907 37.1647 418.441 37.0033C417.019 36.9094 415.854 36.2215 415.854 35.4734C415.854 34.7267 417.019 33.8129 418.441 33.4432C420.389 32.9386 420.206 32.7304 417.702 32.6027C414.777 32.4531 414.375 33.1425 414.375 38.3ZM426.377 38.564C426.471 42.0493 426.847 43.7773 427.211 42.4028C427.576 41.0284 429.2 39.4867 430.821 38.9777C434.713 37.7514 433.79 33.3024 429.518 32.6966C426.504 32.2712 426.22 32.8008 426.377 38.564ZM436.674 38.5596C436.737 42.0478 437.135 44.0486 437.556 43.0057C438.062 41.7574 438.904 41.5887 440.028 42.5143C441.262 43.5294 441.733 42.438 441.733 38.564C441.733 34.6314 441.045 33.078 439.145 32.7142C436.989 32.3006 436.576 33.276 436.674 38.5596ZM447.036 34.4818C446.027 35.6861 445.421 38.1929 445.685 40.0529C446.064 42.7006 447.105 43.434 450.483 43.434C453.062 43.434 455.039 42.5495 455.401 41.2337C455.888 39.4647 455.732 39.4207 454.607 41.0108C452.526 43.9548 447.717 42.4234 447.175 38.6447C446.527 34.14 451.076 32.5074 453.909 36.2288C456 38.9733 456.036 38.9704 455.53 36.0997C454.894 32.503 449.544 31.4835 447.036 34.4818ZM458.739 38.3968C458.739 44.0398 458.959 44.3376 462.806 43.8976C466.056 43.5279 466.97 42.5818 467.36 39.1933C467.869 34.7766 465.825 32.4942 461.327 32.4546C459.283 32.437 458.739 33.6853 458.739 38.3968ZM471.133 37.5666C471.278 42.3984 471.831 43.434 474.266 43.434C476.702 43.434 477.255 42.3984 477.4 37.5666L477.576 31.6991L476.941 37.1999C476.55 40.5927 475.525 42.7006 474.266 42.7006C473.008 42.7006 471.983 40.5927 471.591 37.1999L470.957 31.6991L471.133 37.5666ZM481.498 34.5258C481.051 35.6773 480.906 38.1533 481.174 40.0265C481.541 42.5979 482.663 43.478 485.745 43.613C489.664 43.7846 489.674 43.7641 486.027 43.1407C482.9 42.6052 482.305 41.7911 482.682 38.5611C483.074 35.1888 483.766 34.6783 487.576 34.9541C490.881 35.1932 491.446 34.9174 489.794 33.876C486.523 31.8136 482.422 32.1348 481.498 34.5258ZM494.155 38.6667L494.896 44.9009L495.422 39.7801C495.712 36.9637 496.728 34.1679 497.677 33.5679C498.76 32.8844 498.287 32.4692 496.41 32.4546C493.751 32.4355 493.497 33.1367 494.155 38.6667ZM500.145 34.737C500.145 36.0058 501.225 38.1137 502.545 39.4222C504.758 41.618 504.73 41.8865 502.176 42.8825C499.706 43.8447 499.765 43.9724 502.733 44.0648C506.547 44.1821 507.155 41.0269 503.842 38.3C501.385 36.2757 500.764 33.1983 503.103 34.6329C503.916 35.1316 504.582 34.8397 504.582 33.986C504.582 33.1323 503.584 32.4326 502.364 32.4326C501.144 32.4326 500.145 33.4696 500.145 34.737ZM185.511 38.5699C184.533 41.1384 184.054 43.5587 184.446 43.9489C184.839 44.3376 185.16 43.8858 185.16 42.9456C185.16 42.0038 186.491 41.2337 188.118 41.2337C189.744 41.2337 191.075 42.0038 191.075 42.9456C191.075 43.8858 191.424 44.3112 191.85 43.8888C193.035 42.7123 190.929 38.2164 189.579 39.0437C188.927 39.4442 188.742 38.4496 189.168 36.8346C190.423 32.0717 187.445 33.4843 185.511 38.5699ZM220.802 39.0334C220.844 43.2316 221.176 44.097 221.975 42.0742C223.003 39.472 223.17 39.45 224.079 41.7999C225.07 44.3625 228.045 43.8081 228.045 41.0606C228.045 40.2539 227.38 40.0016 226.567 40.5003C225.753 40.999 225.088 40.8333 225.088 40.1336C225.088 39.4339 224.11 37.5798 222.917 36.0132C220.892 33.3596 220.749 33.5635 220.802 39.0334ZM228.615 36.0102C228.165 37.172 228.499 39.3165 229.356 40.7775C230.679 43.035 230.92 42.7182 230.959 38.6667C231.006 33.6383 229.981 32.4766 228.615 36.0102ZM253.185 35.4528C253.185 36.3065 253.92 36.5559 254.818 36.0058C255.715 35.4558 255.284 36.7701 253.858 38.9278C250.862 43.4634 252.347 45.9614 257.277 44.6823C260.557 43.8315 261.931 41.2337 259.1 41.2337C258.287 41.2337 257.622 39.5835 257.622 37.5666C257.622 35.2842 256.783 33.8994 255.403 33.8994C254.183 33.8994 253.185 34.5991 253.185 35.4528ZM272.41 36.0997C272.41 37.3099 271.744 38.3 270.931 38.3C270.117 38.3 269.452 37.3099 269.452 36.0997C269.452 34.8896 270.117 33.8994 270.931 33.8994C271.744 33.8994 272.41 34.8896 272.41 36.0997ZM282.392 37.6883C280.982 39.0863 278.156 36.8229 279.208 35.1375C279.832 34.1356 280.658 34.1605 281.72 35.2137C282.591 36.0777 282.893 37.1911 282.392 37.6883ZM310.459 36.4664C310.05 37.8776 309.211 40.2539 308.593 41.7457C307.576 44.2071 307.771 44.2745 310.69 42.4791C313.432 40.7922 314.138 40.8259 315.48 42.7006C316.783 44.5224 316.901 44.4388 316.173 42.2136C315.69 40.7365 315.295 38.8824 315.295 38.0932C315.295 37.3055 314.637 37.0635 313.832 37.5563C312.995 38.0697 312.747 37.4815 313.251 36.176C313.736 34.9233 313.473 33.8994 312.669 33.8994C311.863 33.8994 310.869 35.0553 310.459 36.4664ZM359.504 35.9134C361.751 38.6007 360.017 42.7006 356.63 42.7006C353.163 42.7006 351.823 40.5252 353.009 36.82C354.093 33.4344 357.08 33.0164 359.504 35.9134ZM393.671 36.0997C393.671 37.3099 393.006 38.3 392.193 38.3C391.379 38.3 390.714 37.3099 390.714 36.0997C390.714 34.8896 391.379 33.8994 392.193 33.8994C393.006 33.8994 393.671 34.8896 393.671 36.0997ZM430.753 35.7697C430.569 37.524 428.542 37.1837 427.906 35.293C427.58 34.3248 428.113 33.7968 429.089 34.1195C430.065 34.4422 430.813 35.1844 430.753 35.7697ZM440.993 36.0997C440.993 37.3099 440.328 38.3 439.514 38.3C438.701 38.3 438.036 37.3099 438.036 36.0997C438.036 34.8896 438.701 33.8994 439.514 33.8994C440.328 33.8994 440.993 34.8896 440.993 36.0997ZM465.861 38.6799C466.238 41.9158 465.732 42.7006 463.273 42.7006C460.848 42.7006 460.218 41.7706 460.218 38.1929C460.218 34.6915 460.796 33.7924 462.806 34.1708C464.366 34.4642 465.58 36.2537 465.861 38.6799ZM170.372 36.8332C170.372 37.6399 169.707 38.3 168.893 38.3C168.08 38.3 167.414 37.6399 167.414 36.8332C167.414 36.0264 168.08 35.3663 168.893 35.3663C169.707 35.3663 170.372 36.0264 170.372 36.8332ZM202.665 38.875C203.21 41.687 200.278 44.543 198.171 43.2507C197.521 42.8531 196.991 40.8685 196.991 38.8398C196.991 36.1261 197.669 35.2812 199.562 35.6421C200.976 35.912 202.372 37.3671 202.665 38.875ZM295.896 40.7849C298.195 45.2192 300.037 46.0773 303.083 44.1367C305.521 42.5818 305.523 42.529 303.105 43.2727C301.57 43.7465 299.254 42.7534 297.378 40.8171L294.226 37.5666L295.896 40.7849ZM1.46751 47.1012C-0.888227 54.4091 -0.431277 56.0505 3.00842 52.6386C4.43843 51.2201 5.47654 51.248 7.93432 52.7706C10.8476 54.5763 10.988 54.4604 10.1037 50.9649C8.46373 44.4814 6.34164 39.7669 5.06544 39.7669C4.38667 39.7669 2.76738 43.0673 1.46751 47.1012ZM15.2692 47.4679C15.3638 51.7042 15.7454 54.013 16.1165 52.6019C16.9461 49.454 18.9218 49.2707 20.0694 52.2352C20.5367 53.4453 21.6399 54.4355 22.5183 54.4355C23.5978 54.4355 23.654 53.614 22.6898 51.9066C21.7685 50.2711 21.7818 48.4155 22.7312 46.6582C24.8444 42.7402 23.166 39.7669 18.8405 39.7669C15.2899 39.7669 15.1065 40.1615 15.2692 47.4679ZM26.9281 41.2337C26.9281 42.0405 27.5935 42.7006 28.4069 42.7006C29.2202 42.7006 29.8857 45.3409 29.8857 48.568C29.8857 51.7951 30.5511 54.4355 31.3645 54.4355C32.1778 54.4355 32.8433 51.7951 32.8433 48.568C32.8433 45.3409 33.5088 42.7006 34.3221 42.7006C35.1354 42.7006 35.8009 42.0405 35.8009 41.2337C35.8009 40.427 33.8045 39.7669 31.3645 39.7669C28.9245 39.7669 26.9281 40.427 26.9281 41.2337ZM40.5153 43.8007C39.6591 46.0201 38.5042 49.4848 37.9526 51.5018C37.1303 54.4985 37.3019 54.833 38.8886 53.3353C39.9549 52.3276 41.9705 51.5018 43.3679 51.5018C44.7639 51.5018 46.2028 52.3276 46.5666 53.3353C46.9289 54.3445 47.6565 54.7772 48.1829 54.2991C49.292 53.2899 44.5199 39.7669 43.0559 39.7669C42.5161 39.7669 41.373 41.5814 40.5153 43.8007ZM52.0677 47.0044C52.0677 51.091 52.7332 54.4355 53.5466 54.4355C54.3599 54.4355 55.0254 53.1916 55.0254 51.6734C55.0254 50.1082 56.3592 48.5636 58.0998 48.1133C62.8941 46.8694 61.3768 40.6338 56.1345 40.0368C52.1713 39.5835 52.0677 39.7625 52.0677 47.0044ZM64.6672 46.2753C64.6834 49.8545 65.1833 53.2649 65.7763 53.8546C66.3707 54.4428 66.8558 51.5135 66.8558 47.3461C66.8558 43.1773 66.3574 39.7669 65.7467 39.7669C65.1359 39.7669 64.6509 42.6962 64.6672 46.2753ZM71.551 46.7345C71.3218 53.5436 71.6353 54.4355 74.2498 54.4355C75.8765 54.4355 77.2074 53.7754 77.2074 52.9686C77.2074 52.1618 76.2477 51.5018 75.0735 51.5018C73.6391 51.5018 72.7562 49.4613 72.3747 45.2676C71.8335 39.3077 71.798 39.3723 71.551 46.7345ZM80.165 47.1012C80.165 53.947 80.412 54.4355 83.862 54.4355C85.8954 54.4355 87.5591 53.7754 87.5591 52.9686C87.5591 52.1618 86.5609 51.5018 85.3408 51.5018C84.1208 51.5018 83.1226 50.8417 83.1226 50.0349C83.1226 49.2281 84.1208 48.568 85.3408 48.568C86.5609 48.568 87.5591 47.9079 87.5591 47.1012C87.5591 46.2944 86.5609 45.6343 85.3408 45.6343C84.1208 45.6343 83.1226 44.9742 83.1226 44.1675C83.1226 43.3607 84.1208 42.7006 85.3408 42.7006C86.5609 42.7006 87.5591 42.0405 87.5591 41.2337C87.5591 40.427 85.8954 39.7669 83.862 39.7669C80.412 39.7669 80.165 40.2553 80.165 47.1012ZM256.804 42.8253C256.328 43.5895 255.309 43.8286 254.538 43.3563C253.768 42.8839 253.527 41.8733 254.003 41.1091C254.479 40.3448 255.498 40.1057 256.268 40.578C257.039 41.0504 257.28 42.061 256.804 42.8253ZM21.0129 44.254C21.0129 45.0138 20.0147 45.6343 18.7947 45.6343C16.5084 45.6343 15.8563 43.9034 17.5214 42.2517C18.703 41.0797 21.0129 42.4043 21.0129 44.254ZM57.983 44.254C57.983 45.0138 57.3175 45.6343 56.5042 45.6343C55.6908 45.6343 55.0254 44.6046 55.0254 43.3475C55.0254 42.0904 55.6908 41.4684 56.5042 41.9672C57.3175 42.4659 57.983 43.4942 57.983 44.254ZM5.75604 48.8438C5.2843 50.0129 4.93382 49.6652 4.86284 47.9564C4.79925 46.4103 5.14825 45.5448 5.63921 46.0318C6.13018 46.5188 6.18341 47.7847 5.75604 48.8438ZM44.6737 47.1012C44.6737 47.9079 44.0083 48.568 43.1949 48.568C42.3816 48.568 41.7161 47.9079 41.7161 47.1012C41.7161 46.2944 42.3816 45.6343 43.1949 45.6343C44.0083 45.6343 44.6737 46.2944 44.6737 47.1012ZM165.936 56.7223C165.936 58.8507 165.295 60.0843 164.457 59.5695C163.644 59.0707 162.978 59.3627 162.978 60.2164C162.978 61.0701 163.976 61.7698 165.196 61.7698C166.675 61.7698 167.414 60.3029 167.414 57.3692C167.414 54.9489 167.082 52.9686 166.675 52.9686C166.268 52.9686 165.936 54.6584 165.936 56.7223ZM184.845 57.3692C185.203 59.7895 185.678 61.7698 185.9 61.7698C186.121 61.7698 186.596 59.7895 186.954 57.3692C187.356 54.6496 186.954 52.9686 185.9 52.9686C184.845 52.9686 184.443 54.6496 184.845 57.3692ZM215.334 57.356C215.47 60.853 220.651 63.8732 220.651 60.4569C220.651 59.6164 219.702 59.2893 218.543 59.7308C217.167 60.2545 216.218 59.345 215.813 57.1184C215.229 53.9103 215.199 53.925 215.334 57.356ZM244.534 57.7359C244.74 62.1732 244.799 62.2245 245.371 58.4693C245.71 56.25 246.588 54.4355 247.322 54.4355C248.055 54.4355 248.299 55.3581 247.861 56.4876C247.425 57.6156 247.638 58.8889 248.335 59.3157C249.031 59.7426 249.734 58.4884 249.898 56.5301C250.121 53.8546 249.463 52.9686 247.254 52.9686C244.876 52.9686 244.355 53.8825 244.534 57.7359ZM252.815 53.9397C253.833 54.3475 255.496 54.3475 256.512 53.9397C257.53 53.5333 256.697 53.2004 254.664 53.2004C252.631 53.2004 251.799 53.5333 252.815 53.9397ZM263.537 55.0471C263.537 56.1898 264.369 57.4601 265.385 57.8694C266.777 58.4283 266.685 58.9974 265.016 60.1694C263.444 61.2725 263.349 61.7316 264.692 61.7478C267.362 61.7786 268.785 57.3061 266.543 55.9317C265.075 55.0325 265.107 54.6218 266.697 53.9954C268.102 53.4409 267.929 53.1652 266.125 53.0845C264.701 53.0214 263.537 53.9045 263.537 55.0471ZM269.452 57.3692C269.452 60.4335 270.08 61.8064 271.3 61.403C272.318 61.0671 273.149 59.2512 273.149 57.3692C273.149 55.4872 272.318 53.6712 271.3 53.3353C270.08 52.9319 269.452 54.3049 269.452 57.3692ZM278.418 57.4425C278.507 62.1981 278.598 62.289 279.943 58.9534C280.889 56.6035 280.858 54.8946 279.848 53.8927C278.802 52.8557 278.354 53.969 278.418 57.4425ZM282.375 55.7395C281.973 57.2636 282.218 59.4096 282.919 60.5068C283.786 61.8636 284.202 60.9777 284.218 57.7359C284.243 52.3995 283.475 51.5678 282.375 55.7395ZM309.103 53.9705C310.169 54.3944 311.446 54.3416 311.937 53.8546C312.427 53.3676 311.555 53.0214 309.996 53.0845C308.274 53.1549 307.923 53.5025 309.103 53.9705ZM365.808 56.6358C365.808 59.0561 366.152 60.1841 366.574 59.1412C367.188 57.6244 367.826 57.6098 369.784 59.0707C371.83 60.5963 371.932 60.564 370.416 58.8742C368.984 57.2768 368.984 56.3673 370.416 54.544C371.991 52.5374 371.908 52.4831 369.784 54.1304C367.788 55.6779 367.201 55.6779 366.574 54.1304C366.152 53.0874 365.808 54.2154 365.808 56.6358ZM404.311 56.6358C404.341 59.0561 404.672 59.8687 405.048 58.4415C405.424 57.0142 405.398 55.0339 404.993 54.0409C404.588 53.0478 404.282 54.2154 404.311 56.6358ZM423.009 57.0025C423.694 60.3308 423.947 60.5229 424.454 58.1026C424.791 56.4891 425.824 54.6834 426.746 54.0908C427.751 53.4453 427.172 53.0038 425.302 52.9906C422.677 52.9715 422.311 53.6111 423.009 57.0025ZM459.027 56.6358C459.057 59.0561 459.388 59.8687 459.764 58.4415C460.139 57.0142 460.114 55.0339 459.709 54.0409C459.304 53.0478 458.998 54.2154 459.027 56.6358ZM469.295 54.9078C466.931 57.7535 468.279 63.1618 470.742 60.718C471.599 59.8687 472.076 57.6699 471.804 55.829C471.353 52.7867 471.127 52.7031 469.295 54.9078ZM168.941 58.6732C168.983 62.1702 169.158 62.2802 170.952 59.9362C172.033 58.5251 173.293 57.3692 173.754 57.3692C174.214 57.3692 174.896 58.5251 175.268 59.9362C175.804 61.9693 175.98 61.8534 176.116 59.3744C176.238 57.1345 175.234 56.0446 172.59 55.5429C169.402 54.9386 168.899 55.3699 168.941 58.6732ZM198.9 57.3633C198.043 60.608 195.512 61.4001 195.512 58.4224C195.512 57.3883 193.799 56.4011 191.708 56.2294C188.866 55.9962 188.025 56.5345 188.381 58.3549C188.643 59.6956 189.855 61.0627 191.075 61.3928C193.047 61.9267 193.047 61.8196 191.075 60.4364C189.116 59.0634 189.125 58.8786 191.149 58.858C192.411 58.8463 194.169 59.5577 195.058 60.4393C196.202 61.5747 197.523 61.5908 199.595 60.4907C201.202 59.637 202.826 59.2468 203.204 59.6208C203.582 59.9963 203.892 59.3406 203.892 58.1657C203.892 54.7112 199.774 54.0497 198.9 57.3633ZM349.823 56.5888C350.282 57.7726 350.02 59.1324 349.242 59.6091C348.464 60.0858 347.829 59.4463 347.829 58.1892C347.829 56.9321 347.163 55.9023 346.35 55.9023C344.217 55.9023 344.526 59.8687 346.719 60.6359C351.267 62.226 357.413 60.9703 357.923 58.3476C358.369 56.0417 358.004 55.8921 355.354 57.2988C352.845 58.6322 352.265 58.5163 352.265 56.6871C352.265 55.4491 351.529 54.4355 350.628 54.4355C349.727 54.4355 349.367 55.4051 349.823 56.5888ZM375.056 55.5356C375.63 56.5448 375.395 57.3692 374.534 57.3692C373.674 57.3692 372.968 58.3593 372.968 59.5695C372.968 60.7796 373.654 61.7698 374.493 61.7698C376.967 61.7698 377.958 57.3193 375.905 55.4373C374.44 54.0937 374.249 54.1157 375.056 55.5356ZM393.203 55.3889C391.628 56.9511 392.017 61.7698 393.717 61.7698C395.904 61.7698 397.281 57.4293 395.618 55.7791C394.846 55.0134 393.759 54.8374 393.203 55.3889ZM407.572 56.4891C407.031 57.8885 407.319 59.7587 408.214 60.6462C409.397 61.8196 410.11 61.5659 410.826 59.7162C411.367 58.3168 411.078 56.4465 410.184 55.5591C409.001 54.3856 408.288 54.6394 407.572 56.4891ZM436.79 57.3692C436.79 59.3861 437.126 60.212 437.536 59.2028C437.947 58.195 437.947 56.5448 437.536 55.5356C437.126 54.5279 436.79 55.3523 436.79 57.3692ZM486.162 55.7982C485.607 56.6886 484.534 57.0377 483.776 56.5727C483.019 56.1092 482.4 56.869 482.4 58.261C482.4 59.6531 482.837 60.3572 483.373 59.8262C483.908 59.2952 485.232 59.59 486.313 60.4804C487.8 61.7052 488.513 61.4999 489.233 59.6355C490.376 56.6812 487.697 53.3339 486.162 55.7982ZM492.373 55.5356C491.372 57.5291 491.985 60.3014 493.454 60.4129C494.246 60.4731 495.134 59.813 495.425 58.9461C495.716 58.0791 495.196 57.3692 494.266 57.3692C493.337 57.3692 492.988 56.7091 493.491 55.9023C493.994 55.0956 494.072 54.4355 493.665 54.4355C493.259 54.4355 492.677 54.9298 492.373 55.5356ZM501.97 55.1557C502.568 55.8099 501.969 57.136 500.638 58.0997C498.717 59.4932 498.616 60.099 500.15 61.0393C501.515 61.8754 501.726 61.6539 500.87 60.2809C499.992 58.8698 500.335 58.594 502.121 59.2746C505.039 60.3851 505.577 56.6446 502.733 55.0207C501.717 54.4399 501.374 54.5015 501.97 55.1557ZM206.035 58.4693C205.93 60.5009 206.717 61.7698 208.082 61.7698C209.427 61.7698 210.258 60.4716 210.196 58.4693C210.097 55.3405 210.031 55.3215 208.917 58.1026L207.741 61.0363L206.974 58.1026C206.275 55.4271 206.192 55.4593 206.035 58.4693ZM224.958 56.9687C226.92 57.3355 229.493 58.5955 230.675 59.7675C231.858 60.941 233.579 61.6509 234.502 61.3458C236.869 60.564 236.589 57.0157 234.095 56.1913C232.597 55.6955 232.285 56.2808 232.989 58.2698C233.907 60.8647 233.844 60.8779 231.952 58.4693C230.769 56.9614 228.174 55.9845 225.665 56.1018C221.82 56.2822 221.749 56.3688 224.958 56.9687ZM286.115 57.9809C286.303 59.5284 287.456 61.0627 288.676 61.3928C290.103 61.7786 290.313 61.56 289.268 60.7811C288.373 60.1152 287.22 58.5793 286.707 57.3692C286.049 55.8231 285.873 56.005 286.115 57.9809ZM298.209 57.4968C296.686 59.9435 300.112 62.7482 302.153 60.7239C303.859 59.0311 302.792 55.9023 300.507 55.9023C299.79 55.9023 298.756 56.6196 298.209 57.4968ZM309.343 56.8675C311.79 58.0718 311.079 60.7004 308.563 59.7426C307.247 59.2424 306.654 59.4888 307.172 60.319C307.669 61.117 309.082 61.7698 310.314 61.7698C312.998 61.7698 312.46 57.0523 309.712 56.5008C308.676 56.2925 308.509 56.4583 309.343 56.8675ZM315.592 57.7432C314.214 59.3935 314.138 60.3264 315.322 61.0525C317.51 62.3946 318.63 61.1214 318.013 57.9897C317.563 55.697 317.322 55.6735 315.592 57.7432ZM327.125 57.6655C327.125 60.1988 329.793 61.695 332.588 60.7254C333.558 60.3895 333.988 59.169 333.542 58.0161C333.095 56.8631 332.124 56.291 331.383 56.7458C330.642 57.2005 330.427 58.352 330.908 59.304C331.389 60.2574 330.734 59.7543 329.453 58.1892C327.551 55.8627 327.125 55.7674 327.125 57.6655ZM339.448 58.1026C339.448 59.3128 340.003 60.3029 340.682 60.3029C341.359 60.3029 341.913 59.3128 341.913 58.1026C341.913 56.8925 341.359 55.9023 340.682 55.9023C340.003 55.9023 339.448 56.8925 339.448 58.1026ZM380.479 58.2244C380.55 59.9333 380.901 60.2809 381.372 59.1118C381.8 58.0527 381.746 56.7868 381.255 56.2998C380.764 55.8129 380.415 56.6783 380.479 58.2244ZM383.437 58.2244C383.508 59.9333 383.858 60.2809 384.33 59.1118C384.757 58.0527 384.704 56.7868 384.213 56.2998C383.722 55.8129 383.373 56.6783 383.437 58.2244ZM386.394 58.2244C386.465 59.9333 386.816 60.2809 387.288 59.1118C387.715 58.0527 387.662 56.7868 387.171 56.2998C386.68 55.8129 386.331 56.6783 386.394 58.2244ZM398.225 58.2244C398.296 59.9333 398.646 60.2809 399.118 59.1118C399.545 58.0527 399.492 56.7868 399.001 56.2998C398.51 55.8129 398.161 56.6783 398.225 58.2244ZM413.013 58.2244C413.084 59.9333 413.434 60.2809 413.906 59.1118C414.333 58.0527 414.28 56.7868 413.789 56.2998C413.298 55.8129 412.949 56.6783 413.013 58.2244ZM427.801 58.2244C427.872 59.9333 428.222 60.2809 428.694 59.1118C429.121 58.0527 429.068 56.7868 428.577 56.2998C428.086 55.8129 427.737 56.6783 427.801 58.2244ZM430.758 58.2244C430.829 59.9333 431.18 60.2809 431.652 59.1118C432.079 58.0527 432.026 56.7868 431.535 56.2998C431.044 55.8129 430.695 56.6783 430.758 58.2244ZM433.716 58.2244C433.787 59.9333 434.138 60.2809 434.609 59.1118C435.037 58.0527 434.983 56.7868 434.492 56.2998C434.001 55.8129 433.652 56.6783 433.716 58.2244ZM439.686 57.6494C439.472 60.7591 441.909 62.3946 443.337 60.1005C443.979 59.0707 443.769 58.7744 442.812 59.3612C441.935 59.8981 440.912 59.1749 440.538 57.7535C439.93 55.4432 439.84 55.4315 439.686 57.6494ZM445.546 58.2244C445.617 59.9333 445.968 60.2809 446.44 59.1118C446.867 58.0527 446.814 56.7868 446.323 56.2998C445.832 55.8129 445.483 56.6783 445.546 58.2244ZM461.813 58.2244C461.884 59.9333 462.235 60.2809 462.707 59.1118C463.134 58.0527 463.081 56.7868 462.59 56.2998C462.099 55.8129 461.75 56.6783 461.813 58.2244ZM470.101 59.1118C469.629 60.2809 469.278 59.9333 469.207 58.2244C469.144 56.6783 469.493 55.8129 469.984 56.2998C470.475 56.7868 470.528 58.0527 470.101 59.1118ZM473.698 57.6494C473.493 60.6242 475.896 62.4343 477.224 60.3029C477.743 59.4697 478.787 59.1676 479.544 59.6325C480.301 60.0961 480.921 59.5563 480.921 58.4341C480.921 57.3105 479.952 56.3908 478.768 56.3908C477.583 56.3908 476.93 56.8954 477.313 57.5129C477.697 58.129 477.385 59.0165 476.621 59.4859C475.856 59.9553 474.924 59.1749 474.55 57.7535C473.942 55.4432 473.852 55.4315 473.698 57.6494ZM301.986 58.836C301.986 59.6428 301.32 60.3029 300.507 60.3029C299.694 60.3029 299.028 59.6428 299.028 58.836C299.028 58.0293 299.694 57.3692 300.507 57.3692C301.32 57.3692 301.986 58.0293 301.986 58.836ZM435.755 66.2686C435.025 67.4436 435.227 67.7179 436.328 67.0431C437.267 66.4681 438.036 66.6573 438.036 67.4641C438.036 68.2709 437.37 69.3388 436.557 69.8375C434.169 71.3014 434.859 73.5149 437.666 73.3888C439.312 73.3154 439.559 72.9956 438.343 72.513C436.848 71.9175 436.819 71.2912 438.207 69.6321C439.44 68.1594 439.51 67.0461 438.435 65.9797C437.361 64.9147 436.545 65.0027 435.755 66.2686ZM200.237 69.8375C200.266 72.2578 200.597 73.0705 200.973 71.6432C201.349 70.216 201.323 68.2357 200.918 67.2426C200.513 66.2495 200.207 67.4172 200.237 69.8375ZM208.821 67.4744C208.821 68.1917 207.657 68.686 206.233 68.5745C203.08 68.3266 202.758 72.2871 205.863 73.1277C207.835 73.6616 207.835 73.5545 205.863 72.1713C203.932 70.8174 203.963 70.6135 206.11 70.5929C207.465 70.5812 208.91 71.3968 209.321 72.4045C209.73 73.4137 210.119 72.4236 210.183 70.2042C210.247 67.9848 209.967 66.1703 209.56 66.1703C209.154 66.1703 208.821 66.7571 208.821 67.4744ZM227.064 68.9896C227.197 70.9435 228.137 72.8137 229.153 73.1453C231.614 73.9491 233.303 69.3314 231.283 67.3277C230.145 66.1997 229.926 66.6471 230.519 68.8928C230.976 70.6296 230.654 72.0378 229.799 72.0378C228.948 72.0378 227.93 70.5519 227.537 68.7374C226.876 65.6848 226.84 65.7039 227.064 68.9896ZM233.961 67.335C233.961 68.1741 234.793 69.195 235.809 69.6043C237.235 70.1778 237.189 70.6736 235.604 71.7708C234.135 72.7903 234.975 73.0837 238.561 72.805C241.318 72.5893 243.406 71.9996 243.203 71.4921C243.001 70.986 242.833 69.5001 242.833 68.1917C242.833 66.2422 242.433 66.141 240.615 67.6372C238.845 69.0938 237.949 69.0938 236.179 67.6372C234.839 66.5341 233.961 66.4153 233.961 67.335ZM246.908 69.8375C247.297 71.8544 247.87 73.5046 248.182 73.5046C248.493 73.5046 248.749 71.8544 248.749 69.8375C248.749 67.8206 248.175 66.1703 247.475 66.1703C246.775 66.1703 246.519 67.8206 246.908 69.8375ZM260.78 69.4708C260.646 72.1669 261.314 73.5046 262.797 73.5046C264.017 73.5046 265.016 72.805 265.016 71.9512C265.016 71.0975 264.397 70.7763 263.642 71.2398C262.888 71.7019 261.98 70.5856 261.626 68.7594C261.069 65.8843 260.955 65.9797 260.78 69.4708ZM272.581 69.4708C272.457 72.4074 273.113 73.4988 274.997 73.4826C276.64 73.468 276.973 73.0661 275.908 72.3825C274.986 71.7899 273.899 69.9842 273.492 68.3706C272.926 66.1219 272.713 66.3786 272.581 69.4708ZM275.484 68.4924C275.555 70.2013 275.905 70.5489 276.377 69.3798C276.805 68.3208 276.751 67.0549 276.26 66.5679C275.769 66.0809 275.42 66.9463 275.484 68.4924ZM278.325 68.1257C278.325 69.4855 279.474 70.5607 280.913 70.5489C282.39 70.5357 282.866 70.0561 282.022 69.4312C281.208 68.8298 280.043 67.7384 279.434 67.0094C278.825 66.2789 278.325 66.782 278.325 68.1257ZM284.412 69.4708C284.287 72.4074 284.944 73.4988 286.828 73.4826C288.471 73.468 288.804 73.0661 287.739 72.3825C286.816 71.7899 285.729 69.9842 285.322 68.3706C284.756 66.1219 284.543 66.3786 284.412 69.4708ZM287.314 68.4924C287.385 70.2013 287.736 70.5489 288.208 69.3798C288.635 68.3208 288.582 67.0549 288.091 66.5679C287.6 66.0809 287.251 66.9463 287.314 68.4924ZM291.634 67.2001C291.634 68.1125 292.467 69.195 293.483 69.6043C294.874 70.1631 294.782 70.7323 293.113 71.9043C291.748 72.8607 291.572 73.468 292.656 73.4826C295.732 73.5208 296.507 70.3758 294.027 67.9159C292.672 66.5708 291.634 66.2613 291.634 67.2001ZM309.38 68.7021C309.38 69.8243 310.045 70.3362 310.858 69.8375C311.672 69.3388 312.337 69.6307 312.337 70.4844C312.337 72.9252 309.681 72.3018 308.019 69.4708C306.583 67.0255 306.509 67.0255 306.466 69.4708C306.443 70.8834 305.805 72.0378 305.051 72.0378C304.298 72.0378 303.337 70.8834 302.919 69.4708C302.326 67.4759 302.224 67.558 302.46 69.8375C302.701 72.1522 303.853 72.7712 307.922 72.7712C312.11 72.7712 313.106 72.1977 313.232 69.7157C313.318 68.0347 312.487 66.6588 311.383 66.6588C310.282 66.6588 309.38 67.5785 309.38 68.7021ZM315.295 67.2001C315.295 68.1125 316.127 69.195 317.143 69.6043C318.535 70.1631 318.443 70.7323 316.774 71.9043C315.409 72.8607 315.233 73.468 316.317 73.4826C319.393 73.5208 320.168 70.3758 317.688 67.9159C316.333 66.5708 315.295 66.2613 315.295 67.2001ZM323.993 67.2705C323.896 67.8748 323.931 68.9706 324.07 69.7025C324.211 70.436 323.456 71.6535 322.398 72.4089C321.018 73.3917 321.24 73.534 323.18 72.9091C324.669 72.4294 327.103 72.0378 328.586 72.0378C330.586 72.0378 331.078 71.253 330.485 69.0072C329.92 66.8612 329.227 66.4329 328.11 67.5404C326.117 69.5177 323.689 69.5911 324.907 67.6372C325.41 66.8304 325.448 66.1703 324.994 66.1703C324.54 66.1703 324.089 66.6647 323.993 67.2705ZM336.115 67.4274C336.043 68.6699 335.027 69.0821 333.41 68.5247C331.037 67.7047 331.043 67.8 333.489 69.6864C335.486 71.2266 335.673 71.9336 334.228 72.5072C332.694 73.1159 332.689 73.2963 334.195 73.3888C336.44 73.5266 338.073 69.9842 336.993 67.3189C336.402 65.8564 336.205 65.8814 336.115 67.4274ZM340.682 68.6156C339.209 70.1778 339.222 70.5753 340.747 70.5929C342.095 70.6091 342.004 71.0315 340.435 72.0378C338.883 73.0323 338.786 73.4665 340.111 73.4826C341.153 73.4944 342.373 72.5556 342.821 71.3968C343.269 70.238 344.636 69.6688 345.857 70.1338C347.673 70.8262 347.718 71.2295 346.104 72.3531C344.535 73.4474 344.586 73.6073 346.35 73.135C347.57 72.8079 348.717 70.9435 348.899 68.9896C349.081 67.0358 348.859 66.2628 348.405 67.2705C347.953 68.2797 346.932 69.1041 346.14 69.1041C345.346 69.1041 345.04 68.554 345.458 67.8822C346.706 65.8784 342.676 66.4975 340.682 68.6156ZM353.744 68.9823C353.744 70.5284 352.913 72.1258 351.895 72.5336C350.791 72.9751 351.089 73.3198 352.635 73.3888C354.44 73.4694 355.223 72.3957 355.223 69.8375C355.223 67.8206 354.89 66.1703 354.483 66.1703C354.077 66.1703 353.744 67.4348 353.744 68.9823ZM358.492 68.5159C356.935 70.1939 356.935 70.5753 358.492 70.5929C359.841 70.6091 359.749 71.0315 358.18 72.0378C356.629 73.0323 356.531 73.4665 357.856 73.4826C359.891 73.5061 361.743 70.0781 360.907 67.8308C360.628 67.0769 359.541 67.3849 358.492 68.5159ZM364.407 68.5159C362.85 70.1939 362.85 70.5753 364.407 70.5929C365.756 70.6091 365.664 71.0315 364.095 72.0378C362.544 73.0323 362.447 73.4665 363.772 73.4826C365.806 73.5061 367.658 70.0781 366.822 67.8308C366.543 67.0769 365.456 67.3849 364.407 68.5159ZM370.367 69.0835C368.063 72.7433 368.065 73.5046 370.38 73.5032C371.398 73.5032 372.325 71.853 372.442 69.836C372.699 65.4222 372.677 65.4134 370.367 69.0835ZM380.596 69.1041C380.596 71.121 380.932 71.9468 381.341 70.9376C381.752 69.9299 381.752 68.2797 381.341 67.2705C380.932 66.2628 380.596 67.0871 380.596 69.1041ZM407.447 68.9896C407.597 70.9435 408.718 72.8079 409.938 73.135C411.404 73.5266 411.587 73.3169 410.48 72.516C409.557 71.85 408.436 69.9842 407.988 68.3706C407.346 66.0574 407.232 66.1879 407.447 68.9896ZM413.266 67.2588C410.191 68.2958 411.195 70.3538 414.375 69.5295C417.567 68.7007 418.532 71.3131 415.484 72.5336C414.323 72.9986 414.255 73.3154 415.303 73.3888C416.22 73.4518 417.683 72.6524 418.555 71.6109C420.376 69.4341 416.433 66.1894 413.266 67.2588ZM421.655 66.5371C420.72 69.5691 420.822 72.1903 421.9 72.8519C422.641 73.3066 423.248 71.9879 423.248 69.924C423.248 66.939 422.212 64.7343 421.655 66.5371ZM427.322 69.8375C427.711 71.8544 428.284 73.5046 428.596 73.5046C428.907 73.5046 429.163 71.8544 429.163 69.8375C429.163 67.8206 428.589 66.1703 427.89 66.1703C427.189 66.1703 426.933 67.8206 427.322 69.8375ZM446.908 67.6827C446.908 68.4645 447.907 69.1041 449.127 69.1041C450.347 69.1041 451.345 68.8444 451.345 68.5276C451.345 68.2107 450.347 67.5712 449.127 67.1062C447.907 66.6427 446.908 66.9023 446.908 67.6827ZM453.408 69.594C453.494 71.2075 454.412 72.6979 455.449 72.9062C456.485 73.1145 456.652 72.9487 455.818 72.5395C454.984 72.1287 454.302 71.1489 454.302 70.3626C454.302 69.5749 454.968 69.3388 455.781 69.8375C456.595 70.3362 457.26 69.8243 457.26 68.7021C457.26 67.5785 456.358 66.6588 455.256 66.6588C454.153 66.6588 453.322 67.9804 453.408 69.594ZM467.056 68.4278C466.548 69.7377 466.176 71.5816 466.226 72.5248C466.278 73.4665 466.958 72.6568 467.737 70.7249C468.517 68.7916 468.889 66.9492 468.565 66.628C468.242 66.3068 467.561 67.1165 467.056 68.4278ZM211.95 71.6711C212.082 74.7632 212.295 75.0199 212.861 72.7712C213.268 71.1577 214.355 69.352 215.277 68.7594C216.342 68.0758 216.009 67.6739 214.367 67.6592C212.483 67.6431 211.826 68.7344 211.95 71.6711ZM389.115 69.6952C390.437 71.275 390.394 71.9292 388.927 72.513C387.663 73.0162 387.851 73.3125 389.484 73.3888C393.404 73.5736 396.629 71.8984 396.629 69.6805C396.629 66.7542 394.016 67.1546 393.212 70.2042C392.568 72.6495 392.527 72.6495 392.364 70.2042C392.27 68.7916 391.113 67.6372 389.794 67.6372C387.903 67.6372 387.759 68.0729 389.115 69.6952ZM279.527 73.0396C280.593 73.4636 281.869 73.4108 282.36 72.9238C282.851 72.4368 281.979 72.0906 280.42 72.1537C278.697 72.2241 278.347 72.5717 279.527 73.0396ZM248.852 81.2057C248.796 83.425 249.414 85.2395 250.228 85.2395C251.964 85.2395 251.964 84.1115 250.228 80.1055C249.101 77.5062 248.945 77.6309 248.852 81.2057ZM251.706 79.3721C251.706 80.1789 252.372 80.8389 253.185 80.8389C253.998 80.8389 254.664 80.1789 254.664 79.3721C254.664 78.5653 253.998 77.9052 253.185 77.9052C252.372 77.9052 251.706 78.5653 251.706 79.3721ZM335.998 79.3721C334.703 80.2023 334.505 80.8037 335.521 80.8169C336.477 80.8287 337.564 81.9934 337.937 83.4059C338.352 84.9857 338.679 84.421 338.784 81.9391C338.978 77.3918 339.022 77.4329 335.998 79.3721ZM370.011 81.6178C370.011 84.0983 370.827 85.2322 372.599 85.2175C374.814 85.1984 374.867 84.9872 372.968 83.7507C371.152 82.5684 371.108 82.077 372.723 81.0428C374.312 80.0248 374.242 79.6082 372.353 78.8895C370.605 78.2235 370.011 78.9174 370.011 81.6178ZM381.841 79.2093C381.841 79.9266 380.702 80.4209 379.309 80.3094C377.918 80.1979 376.538 81.2599 376.244 82.6725C375.889 84.3785 376.613 85.2322 378.406 85.2175C380.643 85.1984 380.732 84.9623 378.926 83.8299C377.73 83.0788 377.152 82.0682 377.641 81.5826C378.131 81.0971 379.608 81.7675 380.926 83.0744C383.132 85.263 383.32 85.153 383.32 81.6765C383.32 79.6024 382.987 77.9052 382.58 77.9052C382.174 77.9052 381.841 78.492 381.841 79.2093ZM255.483 81.8965C254.294 84.9696 254.374 85.0782 257.622 84.8361C259.248 84.7144 260.626 83.601 260.683 82.3601C260.757 80.7583 261.181 80.9548 262.15 83.0392L263.512 85.9729L263.134 83.0392C262.688 79.5642 256.728 78.6739 255.483 81.8965ZM265.016 80.8037C265.016 81.7249 265.631 82.1019 266.382 81.6413C267.135 81.1807 268.065 81.8144 268.451 83.0495C268.992 84.7877 269.101 84.7364 268.931 82.8221C268.687 80.06 265.016 78.1678 265.016 80.8037ZM271.337 82.3058C271.617 85.9862 276.856 86.3367 276.824 82.6725C276.805 80.4781 276.592 80.4253 275.367 82.3058C274.078 84.2846 273.253 83.3693 273.714 80.4722C273.81 79.8679 273.264 79.3721 272.501 79.3721C271.738 79.3721 271.215 80.6923 271.337 82.3058ZM278.558 82.3058C278.558 84.3227 278.894 85.1486 279.304 84.1394C279.715 83.1316 279.715 81.4814 279.304 80.4722C278.894 79.4645 278.558 80.2889 278.558 82.3058ZM281.793 81.6354C281.31 82.8808 281.333 84.311 281.838 84.8141C282.346 85.3173 282.761 84.5897 282.761 83.1977C282.761 81.8056 283.427 81.0736 284.24 81.5724C285.053 82.0711 285.719 81.7792 285.719 80.9255C285.719 78.5477 282.782 79.0787 281.793 81.6354ZM305.06 80.5588C304.996 81.6149 304.278 82.0711 303.464 81.5724C302.651 81.0736 301.986 81.3259 301.986 82.1327C301.986 84.4665 304.615 85.4434 305.44 83.4147C305.958 82.14 306.231 82.2501 306.327 83.7727C306.452 85.728 306.641 85.728 308.035 83.7727C309.322 81.9684 309.749 81.9317 310.41 83.5717C311.091 85.2601 311.416 85.2601 312.494 83.5717C313.569 81.8877 313.775 81.8892 313.794 83.5849C313.812 85.2087 314.246 85.2454 316.034 83.7727C317.254 82.7679 318.253 82.5464 318.253 83.2813C318.253 84.0147 319.583 84.7144 321.21 84.8361C322.837 84.9579 324.168 84.4386 324.168 83.6817C324.168 82.41 322.018 81.7161 319.362 82.1327C318.752 82.2281 318.253 81.565 318.253 80.66C318.253 79.5217 317.566 79.5774 316.034 80.8389C314.246 82.3117 313.812 82.275 313.794 80.6512C313.775 78.9555 313.569 78.954 312.494 80.638C311.416 82.3263 311.091 82.3263 310.41 80.638C309.73 78.9496 309.386 78.9496 308.192 80.638C307 82.3263 306.656 82.3263 305.978 80.638C305.351 79.0728 305.152 79.0567 305.06 80.5588ZM330.083 80.7055C331.587 81.7601 331.705 82.2677 330.453 82.2838C329.437 82.2955 328.604 82.9659 328.604 83.7727C328.604 84.5794 329.651 85.2395 330.93 85.2395C333.863 85.2395 333.143 80.5764 330.083 79.7491C328.112 79.2151 328.112 79.3222 330.083 80.7055ZM342.653 80.8389C343.156 81.6457 342.861 82.3058 342.001 82.3058C341.14 82.3058 340.435 82.9659 340.435 83.7727C340.435 84.5794 341.433 85.2395 342.653 85.2395C343.885 85.2395 344.871 83.9355 344.871 82.3058C344.871 80.6923 344.166 79.3721 343.305 79.3721C342.444 79.3721 342.15 80.0322 342.653 80.8389ZM346.521 82.6725C346.65 85.1559 346.86 85.3378 347.369 83.4059C348.195 80.2698 350.786 79.9926 350.786 83.0392C350.786 84.3139 352.126 85.2395 353.97 85.2395H357.154L353.744 82.3058C349.229 78.4216 346.308 78.5712 346.521 82.6725ZM357.441 80.8389C356.284 82.696 358.242 82.696 361.138 80.8389C363.05 79.6141 363.01 79.4146 360.855 79.3941C359.48 79.3823 357.944 80.0322 357.441 80.8389ZM365.574 80.8389C367.053 81.7865 367.176 82.2677 365.944 82.2838C364.928 82.2955 364.095 82.9659 364.095 83.7727C364.095 84.5794 365.094 85.2395 366.314 85.2395C367.545 85.2395 368.532 83.9355 368.532 82.3058C368.532 80.481 367.553 79.3809 365.944 79.3941C363.732 79.4132 363.678 79.6244 365.574 80.8389ZM385.785 80.3505C383.469 82.6461 384.985 85.1911 388.496 84.9036C390.529 84.7364 392.193 83.7536 392.193 82.7195C392.193 79.9163 394.831 80.4473 395.61 83.4059C396.243 85.8116 396.296 85.8087 396.458 83.3605C396.707 79.5628 392.426 78.4934 390.025 81.7528C388.91 83.2651 387.463 83.9722 386.811 83.3238C386.158 82.6769 386.603 81.5328 387.799 80.7817C388.995 80.0307 389.253 79.4073 388.373 79.3941C387.492 79.3823 386.326 79.8121 385.785 80.3505ZM400.326 80.8389C399.161 82.7107 400.709 85.2468 403.001 85.2175C404.065 85.2029 403.883 84.622 402.544 83.7507C400.573 82.4657 400.573 82.1459 402.544 80.8609C403.883 79.9896 404.065 79.4088 403.001 79.3941C402.033 79.3823 400.829 80.0322 400.326 80.8389ZM405.502 82.3058C405.502 84.1306 406.481 85.2307 408.09 85.2175C410.305 85.1984 410.358 84.9872 408.46 83.7507C406.488 82.4657 406.488 82.1459 408.46 80.8609C410.358 79.6244 410.305 79.4132 408.09 79.3941C406.481 79.3809 405.502 80.481 405.502 82.3058ZM411.521 82.6725C411.62 85.8219 411.683 85.838 412.896 83.0392L414.166 80.1055L414.388 83.0392C414.551 85.2028 414.83 85.3965 415.453 83.7727C415.917 82.5625 417.029 81.0868 417.924 80.4942C418.819 79.9016 417.72 79.4073 415.484 79.3941C412.216 79.3765 411.438 80.0204 411.521 82.6725ZM358.92 83.7727C358.417 84.5794 359.044 85.2395 360.311 85.2395C361.579 85.2395 362.617 84.5794 362.617 83.7727C362.617 82.9659 361.991 82.3058 361.225 82.3058C360.459 82.3058 359.422 82.9659 358.92 83.7727Z" fill="white"/>
</svg>
