<svg width="116" height="120" viewBox="0 0 116 120" fill="none" xmlns="http://www.w3.org/2000/svg">
<path fill-rule="evenodd" clip-rule="evenodd" d="M57.3556 0.337351C45.6263 2.04152 34.9186 10.8012 28.6179 23.8459C24.9574 31.425 23.4804 37.773 23.1811 47.2156C22.936 54.9372 23.3338 59.0768 24.8962 65.059C25.4447 67.1601 25.8414 68.9315 25.7773 68.995C25.7133 69.0589 24.5213 69.2297 23.1281 69.3751L20.5951 69.6394V71.2116C20.5951 72.516 20.4374 72.815 19.6713 72.965C19.1633 73.0641 16.2825 73.5323 13.2695 74.0055C5.97763 75.1505 3.8893 76.3041 1.82151 80.3293C0.16349 83.5566 0.336355 86.1346 2.88086 96.1392C5.2291 105.372 5.79122 106.433 8.75536 107.229C10.7525 107.766 11.9351 107.463 15.5812 105.483C17.2278 104.59 18.7983 103.946 19.0714 104.053C19.3448 104.161 20.4563 106.379 21.5415 108.984C23.31 113.228 23.7691 113.954 25.9715 115.988C27.9564 117.822 28.9858 118.427 31.332 119.138C35.4047 120.372 37.7247 120.048 44.5719 117.287C50.7691 114.789 57.078 112.92 62.8872 111.863C69.4048 110.676 83.5016 110.837 94.2984 112.222C103.162 113.358 104.513 113.337 107.027 112.022C108.815 111.086 110.773 108.889 111.496 107.006C111.841 106.105 112.878 102.602 113.799 99.2227C115.628 92.5105 115.664 91.0599 114.066 88.6933C112.625 86.561 110.927 85.7102 106.151 84.7282C102.427 83.9626 101.166 83.8696 98.5231 84.1658C96.3145 84.4132 95.4571 84.3899 95.6883 84.0879C95.8702 83.8503 96.7928 82.664 97.738 81.4522C101.941 76.0624 106.967 66.1175 109.968 57.2526L111.461 52.8414L110.681 51.2532C109.145 48.1258 105.9 47.0005 103.183 48.6539C102.423 49.1156 101.737 49.4294 101.658 49.3507C101.58 49.2716 101.317 47.096 101.075 44.5151C100.052 33.5916 96.7731 24.172 91.315 16.4721C82.7847 4.43842 70.2186 -1.53191 57.3556 0.337351ZM56.7496 21.034C56.9524 21.5666 57.4049 22.0024 57.7547 22.0024C58.3259 22.0024 59.1918 23.4997 59.1918 24.487C59.1918 24.6976 57.5289 24.87 55.4964 24.87C51.8199 24.87 51.801 24.8647 51.801 23.8373C51.801 23.1327 52.1278 22.6558 52.8275 22.3375C53.392 22.0811 53.854 21.5412 53.854 21.1377C53.854 20.2819 54.9893 19.5334 55.8109 19.8481C56.1242 19.9677 56.5467 20.5015 56.7496 21.034ZM76.6827 22.7255C76.996 22.9348 76.9184 23.3773 76.4285 24.1753L75.7235 25.3244L75.4698 24.3801C74.9668 22.5059 75.4226 21.8845 76.6827 22.7255ZM81.3599 27.7217C81.9897 30.0551 81.2667 32.4376 79.3467 34.3532C77.9556 35.7411 75.8726 36.7329 75.3799 36.2417C75.2715 36.1331 75.3725 35.5461 75.6045 34.9369C75.8364 34.3278 76.0266 32.5478 76.0266 30.9821C76.0266 28.5402 76.2122 27.8065 77.331 25.8291L78.6351 23.5231L79.7745 24.7951C80.4007 25.4944 81.1143 26.8114 81.3599 27.7217ZM63.6924 27.5246C66.7839 29.1194 67.5094 32.4835 65.3915 35.4003C64.5962 36.4957 63.7754 37.1257 62.9234 37.2957C61.1832 37.6431 60.4216 39.2564 61.2781 40.7795C61.614 41.3763 62.2438 41.9331 62.677 42.0166C63.1106 42.0998 63.9647 42.7012 64.5752 43.3533C65.1858 44.0055 66.2567 44.6528 66.9551 44.792C67.9414 44.9891 68.2251 45.2603 68.2251 46.0059C68.2251 46.6396 68.0383 46.8944 67.6749 46.7551C66.9522 46.4786 66.0144 47.6293 66.3187 48.42C66.4496 48.7608 66.9321 49.0398 67.3912 49.0398C68.0469 49.0398 68.2251 49.3065 68.2251 50.2868C68.2251 51.2101 67.548 52.3637 65.6186 54.7287C64.1852 56.4857 62.5805 58.6896 62.0529 59.6265C61.5253 60.563 60.989 61.3287 60.8613 61.3274C60.7336 61.3262 59.7112 60.3762 58.5899 59.2169C56.1111 56.6541 53.6318 55.4812 50.7482 55.507C47.373 55.5373 43.4616 57.8916 40.5131 61.667C39.7206 62.6818 39.0723 63.2241 39.0723 62.8722C39.0723 62.5199 38.5299 61.2033 37.8671 59.9461L36.6616 57.6598L38.7709 55.8192C41.4189 53.5079 43.0116 52.8656 43.3064 53.9905C43.5515 54.9261 44.521 55.0146 45.2268 54.1658C46.0123 53.2216 45.405 52.1884 44.1999 52.4182C43.6378 52.5255 43.1783 52.5772 43.1783 52.5333C43.1783 52.2027 47.6962 49.4494 48.2382 49.4494C48.6167 49.4494 49.2963 49.0807 49.7479 48.6301C50.4394 47.9403 50.5691 47.2647 50.5691 44.3521C50.5691 41.3014 50.671 40.8221 51.4322 40.2899C52.166 39.7774 52.253 39.435 52.0116 38.0114C51.7045 36.1962 50.593 35.1115 49.0405 35.1115C48.3745 35.1115 48.1055 34.8722 48.1055 34.279C48.1055 33.1971 49.1854 30.6323 50.0354 29.6954C50.6693 28.9961 50.7416 28.9953 51.4914 29.6724C52.8517 30.9006 55.1704 30.5237 58.0278 28.6094C60.7447 26.7893 61.855 26.5767 63.6924 27.5246ZM62.066 31.0792C60.3871 31.3139 58.7352 31.8649 57.6131 32.565C55.7485 33.7276 54.2732 35.6661 54.8296 36.2216C55.0082 36.3994 56.5102 36.5453 58.1678 36.5453C61.5056 36.5453 62.9078 35.866 64.1786 33.6346C65.0462 32.1115 65.5016 30.5909 65.0704 30.6556C64.8861 30.6835 63.534 30.8744 62.066 31.0792ZM59.3499 35.0594C60.0097 35.7866 59.9966 35.8398 59.1056 36.0778C58.5882 36.2163 57.7173 36.3318 57.17 36.3347L56.1743 36.3404L57.1388 35.3163C58.2942 34.0894 58.4531 34.0709 59.3499 35.0594ZM48.9206 40.7442C48.9169 40.913 48.735 41.328 48.5161 41.666C48.1942 42.1629 48.117 42.1039 48.1117 41.3587C48.1084 40.8516 48.2903 40.437 48.5161 40.437C48.742 40.437 48.9239 40.5755 48.9206 40.7442ZM53.1026 41.3259C53.2775 42.5594 54.8805 42.6811 54.8805 41.4611C54.8805 40.9151 54.5614 40.5968 53.9238 40.5066C53.1276 40.394 52.9897 40.5316 53.1026 41.3259ZM63.8571 48.4253C63.4966 49.3622 64.0012 50.2687 64.8836 50.2687C65.8547 50.2687 66.3532 49.1369 65.7184 48.3733C65.1004 47.6306 64.1523 47.6572 63.8571 48.4253ZM60.994 49.6256C60.585 50.6886 61.1578 51.567 62.1671 51.424C62.8454 51.3277 63.0926 51.0196 63.0926 50.2687C63.0926 49.5178 62.8454 49.2098 62.1671 49.1135C61.6115 49.0349 61.1422 49.2397 60.994 49.6256ZM58.3751 50.4682C57.6447 51.3461 58.1748 52.317 59.3844 52.317C60.2068 52.317 60.4236 52.1126 60.4236 51.3367C60.4236 50.7976 60.1313 50.2446 59.7741 50.1077C58.9163 49.7792 58.9565 49.769 58.3751 50.4682ZM55.2332 51.7054C55.0903 52.077 55.243 52.6497 55.5728 52.9782C56.3944 53.7979 57.6266 53.2678 57.4685 52.1626C57.3129 51.0737 55.6101 50.7255 55.2332 51.7054ZM52.359 52.5247C52.2161 52.8963 52.3688 53.469 52.6985 53.7975C53.5202 54.6173 54.7524 54.0872 54.5943 52.9819C54.4387 51.893 52.7359 51.5448 52.359 52.5247ZM49.6112 52.5903C49.0902 53.1097 49.3402 54.3919 50.0128 54.6496C50.811 54.9552 51.8515 53.7443 51.5234 52.8918C51.2951 52.2982 50.0937 52.1085 49.6112 52.5903ZM46.1999 53.344C46.057 53.7156 46.2098 54.2883 46.5395 54.6168C47.3611 55.4366 48.5933 54.9065 48.4352 53.8012C48.2796 52.7123 46.5769 52.3641 46.1999 53.344ZM69.7599 58.169C69.4996 58.9486 68.8344 58.4193 68.7289 57.348C68.6213 56.2526 68.6414 56.2399 69.2479 57.0117C69.5949 57.4529 69.8252 57.974 69.7599 58.169ZM71.0829 61.554C70.3705 62.4106 68.887 62.2856 67.9869 61.2934L67.2109 60.4377L68.4965 61.1738C69.5784 61.7936 69.8864 61.8235 70.4407 61.3647C70.8029 61.0648 71.1207 60.5196 71.1469 60.1529C71.186 59.6097 71.2299 59.6224 71.3863 60.2226C71.4914 60.6277 71.3551 61.2267 71.0829 61.554ZM74.3345 63.3683C74.5997 64.152 74.6404 64.6129 74.4244 64.3925C74.2084 64.1725 73.9 63.4392 73.7395 62.7633C73.3626 61.1779 73.7128 61.5339 74.3345 63.3683ZM66.8044 65.4576C67.3078 66.4289 67.3021 66.639 66.7597 67.088C65.8838 67.8131 65.3369 67.1347 65.0466 64.9635C64.8245 63.3024 64.8586 63.2151 65.5168 63.7575C65.9068 64.0791 66.4862 64.8439 66.8044 65.4576ZM75.9177 67.884C76.2035 67.884 76.4372 68.0683 76.4372 68.2936C76.4372 68.8635 74.72 68.7832 73.9735 68.1781C73.6348 67.9036 73.0854 67.3342 72.7528 66.9123C72.2034 66.2167 72.2979 66.2261 73.7732 67.0147C74.667 67.4928 75.6324 67.884 75.9177 67.884ZM70.2781 68.4985C70.2781 70.7917 69.243 71.9805 67.2462 71.9805C66.1462 71.9805 65.548 71.6389 64.372 70.3407C62.5547 68.3334 62.4553 67.8582 64.1507 69.2813C66.7995 71.5049 68.6234 71.2698 69.4265 68.6005C69.7488 67.5304 70.072 66.655 70.1451 66.655C70.2182 66.655 70.2781 67.4846 70.2781 68.4985ZM56.5229 69.9179C60.718 70.4214 63.6949 71.6577 65.5685 73.6753L66.788 74.9878L65.5562 74.1554C63.5689 72.813 61.8279 72.4607 54.9195 72.0031C44.6097 71.3206 30.9419 71.5967 22.9561 72.6487L21.0057 72.9055V71.4558V70.006L24.3932 69.7598C26.2561 69.6242 28.5198 69.4415 29.4231 69.3534C32.5194 69.0515 52.8258 69.4743 56.5229 69.9179ZM77.0231 72.6065C77.7359 73.6921 77.5889 74.4385 76.6622 74.4385C76.0561 74.4385 75.616 73.5626 75.616 72.3566C75.616 71.2686 76.2138 71.3747 77.0231 72.6065ZM75.8968 77.2549C77.5663 78.1127 78.8232 77.8243 79.5532 76.4167C80.1539 75.257 80.2706 75.1959 80.636 75.8477C81.3299 77.0845 79.7795 78.7141 77.7663 78.864C76.3181 78.9717 75.9034 78.7944 74.6252 77.5191C73.0324 75.9305 72.5565 74.5737 74.0762 75.9546C74.5845 76.4163 75.4037 77.0013 75.8968 77.2549ZM41.8578 79.8083C43.9408 85.6254 44.9291 88.0067 45.4937 88.57C46.011 89.0862 45.9573 89.1943 45.0757 89.4151C43.3787 89.8399 42.5965 89.4602 41.7946 87.822L41.0263 86.2534L39.7415 87.4865C38.0663 89.0939 36.5002 89.4778 35.1686 88.6073C34.4242 88.121 34.1467 87.5774 34.1512 86.6163C34.1594 84.8913 34.331 84.677 37.1219 82.9085C38.4202 82.086 39.4829 81.3125 39.4829 81.1896C39.4829 81.0671 39.2151 80.3273 38.8879 79.5461C38.3172 78.1832 37.9649 77.9578 36.6086 78.0873C36.2699 78.1192 36.7273 77.6854 37.6249 77.1226C39.0472 76.2307 39.3638 76.1697 40.0885 76.6445C40.5459 76.9444 41.3421 78.3679 41.8578 79.8083ZM55.4225 77.6133C56.5336 78.701 56.5722 78.8792 56.5479 82.7922L56.5229 86.8449L55.0427 87.359L53.562 87.8732L53.762 84.0609C54.0207 79.1299 53.7743 78.1262 52.3064 78.1233L51.1851 78.1209L52.4169 77.3339C54.0375 76.2983 54.0839 76.3024 55.4225 77.6133ZM71.8799 78.5252C72.1882 79.9582 72.1895 80.9012 71.8852 81.7001C71.5157 82.6697 71.3966 82.7373 71.0726 82.1597C70.754 81.5919 70.9848 76.4868 71.3293 76.4868C71.3913 76.4868 71.6393 77.404 71.8799 78.5252ZM61.4325 77.8358C61.7716 78.3528 62.7226 80.6108 63.5459 82.8541C64.3691 85.0977 65.41 87.3357 65.8588 87.8277L66.6747 88.722L65.1534 89.0067C63.1098 89.3893 62.3806 88.5839 61.2338 84.6799C59.9539 80.3224 58.9701 78.5355 57.8491 78.5322C57.0074 78.5297 57.0329 78.4638 58.1653 77.7157C59.7765 76.651 60.6757 76.6842 61.4325 77.8358ZM32.2431 78.3237C32.1142 78.6579 31.8892 82.9327 31.7426 87.8232L31.4761 96.7144L30.0965 97.07C29.3381 97.2658 28.6626 97.3694 28.5957 97.3002C28.5288 97.231 28.9961 96.0298 29.6341 94.6313C31.5377 90.4577 31.5406 90.4151 29.94 90.4151C29.1775 90.4151 28.2607 90.1849 27.9026 89.903C27.3462 89.4655 21.4163 80.7734 21.4163 80.3957C21.4163 80.3224 21.861 80.1511 22.4046 80.0151C22.9483 79.8787 23.6874 79.6546 24.0471 79.517C24.4408 79.3662 24.7011 79.4809 24.7011 79.805C24.7011 80.2605 29.9051 88.5684 30.9624 89.8006C31.1595 90.03 31.2593 87.554 31.1899 84.1777C31.0848 79.0905 31.162 78.1184 31.6814 77.9779C32.0201 77.8857 32.3375 77.7895 32.3872 77.7633C32.4365 77.737 32.3716 77.9894 32.2431 78.3237ZM50.4595 83.5308C50.2813 86.5037 50.0781 88.9936 50.0074 89.0636C49.9368 89.1341 49.2741 89.071 48.5342 88.9235C47.2043 88.6581 47.1923 88.6347 47.442 86.815C47.5812 85.8032 47.6949 83.4341 47.6949 81.5501V78.1254H49.2388H50.7831L50.4595 83.5308ZM12.3687 79.3544C12.5493 79.3544 15.5931 82.4874 19.1321 86.3161C23.0858 90.5941 25.9695 93.379 26.6117 93.5399L27.6567 93.8017L26.4869 94.7562C25.8434 95.2814 25.0066 95.7177 24.6272 95.7259C24.2478 95.7341 22.3077 93.9496 20.3159 91.7608C14.6052 85.4857 11.6308 82.4231 11.4547 82.6382C11.3656 82.7471 11.5241 85.5095 11.8074 88.7765C12.6286 98.2535 12.6528 98.0027 10.8433 98.7278C9.99662 99.067 9.25302 99.2977 9.19143 99.2403C9.12983 99.183 9.66074 97.4964 10.3715 95.4924L11.6633 91.8489L11.2214 87.028C10.6622 80.9217 10.4269 80.4928 8.64327 82.3244C7.51698 83.4812 8.03065 82.5099 9.63077 80.4576C10.3871 79.4875 11.0724 78.984 11.4432 79.1262C11.7712 79.2515 12.1876 79.3544 12.3687 79.3544ZM37.7288 83.0712C36.887 83.7635 36.198 84.6701 36.198 85.0859C36.198 86.3935 36.6682 87.1378 37.4943 87.1378C38.5652 87.1378 40.7147 86.0002 40.7147 85.4337C40.7147 84.643 39.7744 81.8123 39.5116 81.8123C39.3728 81.8123 38.5705 82.3789 37.7288 83.0712ZM86.8759 84.4841C87.5514 85.5131 87.5497 85.5418 86.834 85.1547C86.4226 84.9322 85.532 84.1592 84.8545 83.4366L83.6227 82.1228L84.8964 82.766C85.5965 83.1195 86.4875 83.8929 86.8759 84.4841ZM77.9769 84.26C78.9135 85.6393 78.6942 86.7282 77.4793 86.7282C76.8469 86.7282 76.0266 84.9634 76.0266 83.6025C76.0266 82.2498 76.7858 82.5059 77.9769 84.26ZM82.3149 86.6077C82.5174 87.6561 82.4472 87.8744 81.9663 87.6905C81.5512 87.5315 81.3726 86.8691 81.3903 85.5578C81.4178 83.5488 81.8111 83.9954 82.3149 86.6077ZM95.1582 86.7282C92.805 88.9485 92.0586 89.1198 87.9341 88.3877C86.1258 88.0665 86.1451 88.0587 88.8567 88.0084C91.3967 87.9612 91.7555 87.8412 93.1717 86.5647C94.0217 85.7991 95.1767 85.0867 95.7392 84.9818C96.3017 84.8773 96.8897 84.7663 97.0453 84.7356C97.2014 84.7049 96.3518 85.6016 95.1582 86.7282ZM18.7104 91.175C19.0742 91.762 17.1518 93.2532 15.6482 93.5502C14.1133 93.8538 14.1166 93.8353 16.021 91.5416C16.6402 90.7961 18.3331 90.5654 18.7104 91.175ZM88.1237 96.6574C88.5869 101.03 89.1453 103.667 89.6799 104.006C89.9945 104.205 89.6861 104.333 88.8813 104.337C87.4885 104.344 86.2916 103.169 86.2916 101.794C86.2916 100.915 85.7488 100.852 85.0816 101.654C83.718 103.294 80.5374 102.596 80.5493 100.66C80.5584 99.2289 80.9583 98.7356 82.7001 98.0097C84.5971 97.2191 85.2122 97.2183 83.7537 98.0085C82.3679 98.7594 81.8871 100.125 82.7169 100.953C83.229 101.464 83.5829 101.485 84.8122 101.08C86.051 100.672 86.2916 100.403 86.2916 99.4251C86.2916 98.7827 86.0161 97.9823 85.6794 97.6463C85.2746 97.2424 85.2224 96.9839 85.5255 96.8832C86.3319 96.6148 85.4938 94.0315 84.5174 93.7767C83.7652 93.5805 83.8383 93.4846 85.0742 93.0463C86.3331 92.6002 86.575 92.6313 87.1744 93.3171C87.5575 93.755 87.9702 95.2073 88.1237 96.6574ZM100.496 94.9676C101.158 95.7001 101.275 96.4551 101.254 99.8736C101.241 102.096 101.149 103.989 101.049 104.081C100.95 104.173 100.263 104.377 99.5241 104.535L98.1803 104.822L98.4582 100.26C98.7325 95.7505 98.7251 95.6939 97.8008 95.453L96.8663 95.2089L97.8407 94.6702C99.1879 93.9246 99.5956 93.9705 100.496 94.9676ZM95.4612 95.3371C96.1765 95.3408 96.5534 95.4789 96.2985 95.6444C95.9474 95.8721 94.5037 104.152 94.5037 105.936C94.5037 106.096 93.8406 106.15 93.0301 106.055C91.6307 105.892 91.5679 105.819 91.7798 104.601C91.9025 103.896 92.2257 101.421 92.4979 99.1019C92.8908 95.7537 93.1134 94.9299 93.5766 95.1077C93.8977 95.2306 94.7456 95.3338 95.4612 95.3371ZM104.769 107.416L105.733 108.44H104.111C102.218 108.44 100.24 107.32 101.134 106.755C102.185 106.091 103.797 106.383 104.769 107.416Z" fill="white"/>
<path fill-rule="evenodd" clip-rule="evenodd" d="M57.3556 0.337351C45.6263 2.04152 34.9186 10.8012 28.6179 23.8459C24.9574 31.425 23.4804 37.773 23.1811 47.2156C22.936 54.9372 23.3338 59.0768 24.8962 65.059C25.4447 67.1601 25.8414 68.9315 25.7773 68.995C25.7133 69.0589 24.5213 69.2297 23.1281 69.3751L20.5951 69.6394V71.2116C20.5951 72.516 20.4374 72.815 19.6713 72.965C19.1633 73.0641 16.2825 73.5323 13.2695 74.0055C5.97763 75.1505 3.8893 76.3041 1.82151 80.3293C0.16349 83.5566 0.336355 86.1346 2.88086 96.1392C5.2291 105.372 5.79122 106.433 8.75536 107.229C10.7525 107.766 11.9351 107.463 15.5812 105.483C17.2278 104.59 18.7983 103.946 19.0714 104.053C19.3448 104.161 20.4563 106.379 21.5415 108.984C23.31 113.228 23.7691 113.954 25.9715 115.988C27.9564 117.822 28.9858 118.427 31.332 119.138C35.4047 120.372 37.7247 120.048 44.5719 117.287C50.7691 114.789 57.078 112.92 62.8872 111.863C69.4048 110.676 83.5016 110.837 94.2984 112.222C103.162 113.358 104.513 113.337 107.027 112.022C108.815 111.086 110.773 108.889 111.496 107.006C111.841 106.105 112.878 102.602 113.799 99.2227C115.628 92.5105 115.664 91.0599 114.066 88.6933C112.625 86.561 110.927 85.7102 106.151 84.7282C102.427 83.9626 101.166 83.8696 98.5231 84.1658C96.3145 84.4132 95.4571 84.3899 95.6883 84.0879C95.8702 83.8503 96.7928 82.664 97.738 81.4522C101.941 76.0624 106.967 66.1175 109.968 57.2526L111.461 52.8414L110.681 51.2532C109.145 48.1258 105.9 47.0005 103.183 48.6539C102.423 49.1156 101.737 49.4294 101.658 49.3507C101.58 49.2716 101.317 47.096 101.075 44.5151C100.052 33.5916 96.7731 24.172 91.315 16.4721C82.7847 4.43842 70.2186 -1.53191 57.3556 0.337351ZM56.7496 21.034C56.9524 21.5666 57.4049 22.0024 57.7547 22.0024C58.3259 22.0024 59.1918 23.4997 59.1918 24.487C59.1918 24.6976 57.5289 24.87 55.4964 24.87C51.8199 24.87 51.801 24.8647 51.801 23.8373C51.801 23.1327 52.1278 22.6558 52.8275 22.3375C53.392 22.0811 53.854 21.5412 53.854 21.1377C53.854 20.2819 54.9893 19.5334 55.8109 19.8481C56.1242 19.9677 56.5467 20.5015 56.7496 21.034ZM76.6827 22.7255C76.996 22.9348 76.9184 23.3773 76.4285 24.1753L75.7235 25.3244L75.4698 24.3801C74.9668 22.5059 75.4226 21.8845 76.6827 22.7255ZM81.3599 27.7217C81.9897 30.0551 81.2667 32.4376 79.3467 34.3532C77.9556 35.7411 75.8726 36.7329 75.3799 36.2417C75.2715 36.1331 75.3725 35.5461 75.6045 34.9369C75.8364 34.3278 76.0266 32.5478 76.0266 30.9821C76.0266 28.5402 76.2122 27.8065 77.331 25.8291L78.6351 23.5231L79.7745 24.7951C80.4007 25.4944 81.1143 26.8114 81.3599 27.7217ZM63.6924 27.5246C66.7839 29.1194 67.5094 32.4835 65.3915 35.4003C64.5962 36.4957 63.7754 37.1257 62.9234 37.2957C61.1832 37.6431 60.4216 39.2564 61.2781 40.7795C61.614 41.3763 62.2438 41.9331 62.677 42.0166C63.1106 42.0998 63.9647 42.7012 64.5752 43.3533C65.1858 44.0055 66.2567 44.6528 66.9551 44.792C67.9414 44.9891 68.2251 45.2603 68.2251 46.0059C68.2251 46.6396 68.0383 46.8944 67.6749 46.7551C66.9522 46.4786 66.0144 47.6293 66.3187 48.42C66.4496 48.7608 66.9321 49.0398 67.3912 49.0398C68.0469 49.0398 68.2251 49.3065 68.2251 50.2868C68.2251 51.2101 67.548 52.3637 65.6186 54.7287C64.1852 56.4857 62.5805 58.6896 62.0529 59.6265C61.5253 60.563 60.989 61.3287 60.8613 61.3274C60.7336 61.3262 59.7112 60.3762 58.5899 59.2169C56.1111 56.6541 53.6318 55.4812 50.7482 55.507C47.373 55.5373 43.4616 57.8916 40.5131 61.667C39.7206 62.6818 39.0723 63.2241 39.0723 62.8722C39.0723 62.5199 38.5299 61.2033 37.8671 59.9461L36.6616 57.6598L38.7709 55.8192C41.4189 53.5079 43.0116 52.8656 43.3064 53.9905C43.5515 54.9261 44.521 55.0146 45.2268 54.1658C46.0123 53.2216 45.405 52.1884 44.1999 52.4182C43.6378 52.5255 43.1783 52.5772 43.1783 52.5333C43.1783 52.2027 47.6962 49.4494 48.2382 49.4494C48.6167 49.4494 49.2963 49.0807 49.7479 48.6301C50.4394 47.9403 50.5691 47.2647 50.5691 44.3521C50.5691 41.3014 50.671 40.8221 51.4322 40.2899C52.166 39.7774 52.253 39.435 52.0116 38.0114C51.7045 36.1962 50.593 35.1115 49.0405 35.1115C48.3745 35.1115 48.1055 34.8722 48.1055 34.279C48.1055 33.1971 49.1854 30.6323 50.0354 29.6954C50.6693 28.9961 50.7416 28.9953 51.4914 29.6724C52.8517 30.9006 55.1704 30.5237 58.0278 28.6094C60.7447 26.7893 61.855 26.5767 63.6924 27.5246ZM62.066 31.0792C60.3871 31.3139 58.7352 31.8649 57.6131 32.565C55.7485 33.7276 54.2732 35.6661 54.8296 36.2216C55.0082 36.3994 56.5102 36.5453 58.1678 36.5453C61.5056 36.5453 62.9078 35.866 64.1786 33.6346C65.0462 32.1115 65.5016 30.5909 65.0704 30.6556C64.8861 30.6835 63.534 30.8744 62.066 31.0792ZM59.3499 35.0594C60.0097 35.7866 59.9966 35.8398 59.1056 36.0778C58.5882 36.2163 57.7173 36.3318 57.17 36.3347L56.1743 36.3404L57.1388 35.3163C58.2942 34.0894 58.4531 34.0709 59.3499 35.0594ZM48.9206 40.7442C48.9169 40.913 48.735 41.328 48.5161 41.666C48.1942 42.1629 48.117 42.1039 48.1117 41.3587C48.1084 40.8516 48.2903 40.437 48.5161 40.437C48.742 40.437 48.9239 40.5755 48.9206 40.7442ZM53.1026 41.3259C53.2775 42.5594 54.8805 42.6811 54.8805 41.4611C54.8805 40.9151 54.5614 40.5968 53.9238 40.5066C53.1276 40.394 52.9897 40.5316 53.1026 41.3259ZM63.8571 48.4253C63.4966 49.3622 64.0012 50.2687 64.8836 50.2687C65.8547 50.2687 66.3532 49.1369 65.7184 48.3733C65.1004 47.6306 64.1523 47.6572 63.8571 48.4253ZM60.994 49.6256C60.585 50.6886 61.1578 51.567 62.1671 51.424C62.8454 51.3277 63.0926 51.0196 63.0926 50.2687C63.0926 49.5178 62.8454 49.2098 62.1671 49.1135C61.6115 49.0349 61.1422 49.2397 60.994 49.6256ZM58.3751 50.4682C57.6447 51.3461 58.1748 52.317 59.3844 52.317C60.2068 52.317 60.4236 52.1126 60.4236 51.3367C60.4236 50.7976 60.1313 50.2446 59.7741 50.1077C58.9163 49.7792 58.9565 49.769 58.3751 50.4682ZM55.2332 51.7054C55.0903 52.077 55.243 52.6497 55.5728 52.9782C56.3944 53.7979 57.6266 53.2678 57.4685 52.1626C57.3129 51.0737 55.6101 50.7255 55.2332 51.7054ZM52.359 52.5247C52.2161 52.8963 52.3688 53.469 52.6985 53.7975C53.5202 54.6173 54.7524 54.0872 54.5943 52.9819C54.4387 51.893 52.7359 51.5448 52.359 52.5247ZM49.6112 52.5903C49.0902 53.1097 49.3402 54.3919 50.0128 54.6496C50.811 54.9552 51.8515 53.7443 51.5234 52.8918C51.2951 52.2982 50.0937 52.1085 49.6112 52.5903ZM46.1999 53.344C46.057 53.7156 46.2098 54.2883 46.5395 54.6168C47.3611 55.4366 48.5933 54.9065 48.4352 53.8012C48.2796 52.7123 46.5769 52.3641 46.1999 53.344ZM69.7599 58.169C69.4996 58.9486 68.8344 58.4193 68.7289 57.348C68.6213 56.2526 68.6414 56.2399 69.2479 57.0117C69.5949 57.4529 69.8252 57.974 69.7599 58.169ZM71.0829 61.554C70.3705 62.4106 68.887 62.2856 67.9869 61.2934L67.2109 60.4377L68.4965 61.1738C69.5784 61.7936 69.8864 61.8235 70.4407 61.3647C70.8029 61.0648 71.1207 60.5196 71.1469 60.1529C71.186 59.6097 71.2299 59.6224 71.3863 60.2226C71.4914 60.6277 71.3551 61.2267 71.0829 61.554ZM74.3345 63.3683C74.5997 64.152 74.6404 64.6129 74.4244 64.3925C74.2084 64.1725 73.9 63.4392 73.7395 62.7633C73.3626 61.1779 73.7128 61.5339 74.3345 63.3683ZM66.8044 65.4576C67.3078 66.4289 67.3021 66.639 66.7597 67.088C65.8838 67.8131 65.3369 67.1347 65.0466 64.9635C64.8245 63.3024 64.8586 63.2151 65.5168 63.7575C65.9068 64.0791 66.4862 64.8439 66.8044 65.4576ZM75.9177 67.884C76.2035 67.884 76.4372 68.0683 76.4372 68.2936C76.4372 68.8635 74.72 68.7832 73.9735 68.1781C73.6348 67.9036 73.0854 67.3342 72.7528 66.9123C72.2034 66.2167 72.2979 66.2261 73.7732 67.0147C74.667 67.4928 75.6324 67.884 75.9177 67.884ZM70.2781 68.4985C70.2781 70.7917 69.243 71.9805 67.2462 71.9805C66.1462 71.9805 65.548 71.6389 64.372 70.3407C62.5547 68.3334 62.4553 67.8582 64.1507 69.2813C66.7995 71.5049 68.6234 71.2698 69.4265 68.6005C69.7488 67.5304 70.072 66.655 70.1451 66.655C70.2182 66.655 70.2781 67.4846 70.2781 68.4985ZM56.5229 69.9179C60.718 70.4214 63.6949 71.6577 65.5685 73.6753L66.788 74.9878L65.5562 74.1554C63.5689 72.813 61.8279 72.4607 54.9195 72.0031C44.6097 71.3206 30.9419 71.5967 22.9561 72.6487L21.0057 72.9055V71.4558V70.006L24.3932 69.7598C26.2561 69.6242 28.5198 69.4415 29.4231 69.3534C32.5194 69.0515 52.8258 69.4743 56.5229 69.9179ZM77.0231 72.6065C77.7359 73.6921 77.5889 74.4385 76.6622 74.4385C76.0561 74.4385 75.616 73.5626 75.616 72.3566C75.616 71.2686 76.2138 71.3747 77.0231 72.6065ZM75.8968 77.2549C77.5663 78.1127 78.8232 77.8243 79.5532 76.4167C80.1539 75.257 80.2706 75.1959 80.636 75.8477C81.3299 77.0845 79.7795 78.7141 77.7663 78.864C76.3181 78.9717 75.9034 78.7944 74.6252 77.5191C73.0324 75.9305 72.5565 74.5737 74.0762 75.9546C74.5845 76.4163 75.4037 77.0013 75.8968 77.2549ZM41.8578 79.8083C43.9408 85.6254 44.9291 88.0067 45.4937 88.57C46.011 89.0862 45.9573 89.1943 45.0757 89.4151C43.3787 89.8399 42.5965 89.4602 41.7946 87.822L41.0263 86.2534L39.7415 87.4865C38.0663 89.0939 36.5002 89.4778 35.1686 88.6073C34.4242 88.121 34.1467 87.5774 34.1512 86.6163C34.1594 84.8913 34.331 84.677 37.1219 82.9085C38.4202 82.086 39.4829 81.3125 39.4829 81.1896C39.4829 81.0671 39.2151 80.3273 38.8879 79.5461C38.3172 78.1832 37.9649 77.9578 36.6086 78.0873C36.2699 78.1192 36.7273 77.6854 37.6249 77.1226C39.0472 76.2307 39.3638 76.1697 40.0885 76.6445C40.5459 76.9444 41.3421 78.3679 41.8578 79.8083ZM55.4225 77.6133C56.5336 78.701 56.5722 78.8792 56.5479 82.7922L56.5229 86.8449L55.0427 87.359L53.562 87.8732L53.762 84.0609C54.0207 79.1299 53.7743 78.1262 52.3064 78.1233L51.1851 78.1209L52.4169 77.3339C54.0375 76.2983 54.0839 76.3024 55.4225 77.6133ZM71.8799 78.5252C72.1882 79.9582 72.1895 80.9012 71.8852 81.7001C71.5157 82.6697 71.3966 82.7373 71.0726 82.1597C70.754 81.5919 70.9848 76.4868 71.3293 76.4868C71.3913 76.4868 71.6393 77.404 71.8799 78.5252ZM61.4325 77.8358C61.7716 78.3528 62.7226 80.6108 63.5459 82.8541C64.3691 85.0977 65.41 87.3357 65.8588 87.8277L66.6747 88.722L65.1534 89.0067C63.1098 89.3893 62.3806 88.5839 61.2338 84.6799C59.9539 80.3224 58.9701 78.5355 57.8491 78.5322C57.0074 78.5297 57.0329 78.4638 58.1653 77.7157C59.7765 76.651 60.6757 76.6842 61.4325 77.8358ZM32.2431 78.3237C32.1142 78.6579 31.8892 82.9327 31.7426 87.8232L31.4761 96.7144L30.0965 97.07C29.3381 97.2658 28.6626 97.3694 28.5957 97.3002C28.5288 97.231 28.9961 96.0298 29.6341 94.6313C31.5377 90.4577 31.5406 90.4151 29.94 90.4151C29.1775 90.4151 28.2607 90.1849 27.9026 89.903C27.3462 89.4655 21.4163 80.7734 21.4163 80.3957C21.4163 80.3224 21.861 80.1511 22.4046 80.0151C22.9483 79.8787 23.6874 79.6546 24.0471 79.517C24.4408 79.3662 24.7011 79.4809 24.7011 79.805C24.7011 80.2605 29.9051 88.5684 30.9624 89.8006C31.1595 90.03 31.2593 87.554 31.1899 84.1777C31.0848 79.0905 31.162 78.1184 31.6814 77.9779C32.0201 77.8857 32.3375 77.7895 32.3872 77.7633C32.4365 77.737 32.3716 77.9894 32.2431 78.3237ZM50.4595 83.5308C50.2813 86.5037 50.0781 88.9936 50.0074 89.0636C49.9368 89.1341 49.2741 89.071 48.5342 88.9235C47.2043 88.6581 47.1923 88.6347 47.442 86.815C47.5812 85.8032 47.6949 83.4341 47.6949 81.5501V78.1254H49.2388H50.7831L50.4595 83.5308ZM12.3687 79.3544C12.5493 79.3544 15.5931 82.4874 19.1321 86.3161C23.0858 90.5941 25.9695 93.379 26.6117 93.5399L27.6567 93.8017L26.4869 94.7562C25.8434 95.2814 25.0066 95.7177 24.6272 95.7259C24.2478 95.7341 22.3077 93.9496 20.3159 91.7608C14.6052 85.4857 11.6308 82.4231 11.4547 82.6382C11.3656 82.7471 11.5241 85.5095 11.8074 88.7765C12.6286 98.2535 12.6528 98.0027 10.8433 98.7278C9.99662 99.067 9.25302 99.2977 9.19143 99.2403C9.12983 99.183 9.66074 97.4964 10.3715 95.4924L11.6633 91.8489L11.2214 87.028C10.6622 80.9217 10.4269 80.4928 8.64327 82.3244C7.51698 83.4812 8.03065 82.5099 9.63077 80.4576C10.3871 79.4875 11.0724 78.984 11.4432 79.1262C11.7712 79.2515 12.1876 79.3544 12.3687 79.3544ZM37.7288 83.0712C36.887 83.7635 36.198 84.6701 36.198 85.0859C36.198 86.3935 36.6682 87.1378 37.4943 87.1378C38.5652 87.1378 40.7147 86.0002 40.7147 85.4337C40.7147 84.643 39.7744 81.8123 39.5116 81.8123C39.3728 81.8123 38.5705 82.3789 37.7288 83.0712ZM86.8759 84.4841C87.5514 85.5131 87.5497 85.5418 86.834 85.1547C86.4226 84.9322 85.532 84.1592 84.8545 83.4366L83.6227 82.1228L84.8964 82.766C85.5965 83.1195 86.4875 83.8929 86.8759 84.4841ZM77.9769 84.26C78.9135 85.6393 78.6942 86.7282 77.4793 86.7282C76.8469 86.7282 76.0266 84.9634 76.0266 83.6025C76.0266 82.2498 76.7858 82.5059 77.9769 84.26ZM82.3149 86.6077C82.5174 87.6561 82.4472 87.8744 81.9663 87.6905C81.5512 87.5315 81.3726 86.8691 81.3903 85.5578C81.4178 83.5488 81.8111 83.9954 82.3149 86.6077ZM95.1582 86.7282C92.805 88.9485 92.0586 89.1198 87.9341 88.3877C86.1258 88.0665 86.1451 88.0587 88.8567 88.0084C91.3967 87.9612 91.7555 87.8412 93.1717 86.5647C94.0217 85.7991 95.1767 85.0867 95.7392 84.9818C96.3017 84.8773 96.8897 84.7663 97.0453 84.7356C97.2014 84.7049 96.3518 85.6016 95.1582 86.7282ZM18.7104 91.175C19.0742 91.762 17.1518 93.2532 15.6482 93.5502C14.1133 93.8538 14.1166 93.8353 16.021 91.5416C16.6402 90.7961 18.3331 90.5654 18.7104 91.175ZM88.1237 96.6574C88.5869 101.03 89.1453 103.667 89.6799 104.006C89.9945 104.205 89.6861 104.333 88.8813 104.337C87.4885 104.344 86.2916 103.169 86.2916 101.794C86.2916 100.915 85.7488 100.852 85.0816 101.654C83.718 103.294 80.5374 102.596 80.5493 100.66C80.5584 99.2289 80.9583 98.7356 82.7001 98.0097C84.5971 97.2191 85.2122 97.2183 83.7537 98.0085C82.3679 98.7594 81.8871 100.125 82.7169 100.953C83.229 101.464 83.5829 101.485 84.8122 101.08C86.051 100.672 86.2916 100.403 86.2916 99.4251C86.2916 98.7827 86.0161 97.9823 85.6794 97.6463C85.2746 97.2424 85.2224 96.9839 85.5255 96.8832C86.3319 96.6148 85.4938 94.0315 84.5174 93.7767C83.7652 93.5805 83.8383 93.4846 85.0742 93.0463C86.3331 92.6002 86.575 92.6313 87.1744 93.3171C87.5575 93.755 87.9702 95.2073 88.1237 96.6574ZM100.496 94.9676C101.158 95.7001 101.275 96.4551 101.254 99.8736C101.241 102.096 101.149 103.989 101.049 104.081C100.95 104.173 100.263 104.377 99.5241 104.535L98.1803 104.822L98.4582 100.26C98.7325 95.7505 98.7251 95.6939 97.8008 95.453L96.8663 95.2089L97.8407 94.6702C99.1879 93.9246 99.5956 93.9705 100.496 94.9676ZM95.4612 95.3371C96.1765 95.3408 96.5534 95.4789 96.2985 95.6444C95.9474 95.8721 94.5037 104.152 94.5037 105.936C94.5037 106.096 93.8406 106.15 93.0301 106.055C91.6307 105.892 91.5679 105.819 91.7798 104.601C91.9025 103.896 92.2257 101.421 92.4979 99.1019C92.8908 95.7537 93.1134 94.9299 93.5766 95.1077C93.8977 95.2306 94.7456 95.3338 95.4612 95.3371ZM104.769 107.416L105.733 108.44H104.111C102.218 108.44 100.24 107.32 101.134 106.755C102.185 106.091 103.797 106.383 104.769 107.416Z" fill="white"/>
</svg>
