<svg width="268" height="37" viewBox="0 0 268 37" fill="none" xmlns="http://www.w3.org/2000/svg">
<path fill-rule="evenodd" clip-rule="evenodd" d="M249.77 1.93234C246.141 3.88849 243.486 8.68787 243.486 13.289C243.486 15.7369 244.552 17.7602 247.258 20.4475C250.548 23.7164 251.617 24.1518 255.624 23.8594C258.257 23.6677 260.423 22.9019 260.7 22.0657C261.091 20.8872 260.722 20.8526 258.784 21.8826C257.463 22.5845 256.098 22.8759 255.75 22.5293C255.035 21.8198 254.887 21.9379 259.288 19.6969C261.083 18.7827 262.698 17.0768 262.876 15.9059C263.163 14.0104 263.045 13.9649 261.793 15.4954C256.803 21.5913 248.999 19.4965 248.954 12.0488C248.919 6.05368 255.924 3.70002 260.738 8.08998C262.449 9.6497 263.229 9.94214 262.905 8.90233C262.627 8.00874 260.769 6.18149 258.778 4.84057C255.586 2.69162 255.442 2.40351 257.563 2.40351C258.89 2.40351 259.668 1.91718 259.296 1.32037C258.316 -0.255593 253.221 0.0725977 249.77 1.93234ZM264.726 12.7269C264.707 18.7329 264.919 19.5409 266.089 17.9509C267.861 15.5441 267.873 9.85657 266.111 7.46826C264.969 5.92154 264.744 6.77613 264.726 12.7269ZM103.923 22.4415V35.9808H106.649C109.037 35.9808 109.375 35.5118 109.375 32.1898C109.375 30.1047 109.825 28.3988 110.376 28.3988C110.927 28.3988 112.439 30.1047 113.736 32.1898C115.379 34.8316 116.894 35.9808 118.732 35.9808C122.009 35.9808 122.004 35.8053 118.556 30.6301C115.605 26.1989 115.855 24.0143 119.673 20.8656C122.127 18.8434 121.757 17.5674 118.717 17.5674C117.015 17.5674 115.231 18.7318 113.736 20.8168C112.455 22.604 110.949 24.0663 110.391 24.0663C109.832 24.0663 109.375 20.6544 109.375 16.4843C109.375 9.11896 109.297 8.90233 106.649 8.90233H103.923V22.4415ZM124.651 10.513C122.839 12.6814 124.046 15.4012 126.82 15.4012C128.058 15.4012 129.354 14.6635 129.702 13.7624C130.329 12.1409 128.409 8.90233 126.82 8.90233C126.368 8.90233 125.391 9.62695 124.651 10.513ZM60.3095 22.9831V35.9808H67.6987C76.8172 35.9808 79.9356 34.2044 79.9356 29.0119C79.9356 27.033 79.2083 24.8158 78.3197 24.0825C76.8935 22.9062 76.8935 22.4838 78.3197 20.4594C82.5044 14.5249 77.7069 9.98547 67.2495 9.98547H60.3095V22.9831ZM157.469 11.9286C156.856 13.0692 155.302 16.6316 154.017 19.8463C152.734 23.0611 150.757 28.0067 149.626 30.8359C147.61 35.8779 147.61 35.9808 149.627 35.9808C150.933 35.9808 152.101 34.7936 152.825 32.7313C153.904 29.6563 154.285 29.4819 159.912 29.4819C165.539 29.4819 165.921 29.6563 166.999 32.7313C167.998 35.5768 171.524 37.4387 171.524 35.1208C171.524 34.6474 169.364 28.9209 166.725 22.3939C161.892 10.4436 159.641 7.89826 157.469 11.9286ZM136.27 12.8742C135.87 13.2706 135.543 14.4892 135.543 15.582C135.543 16.6738 134.807 17.5674 133.907 17.5674C133.008 17.5674 132.272 18.2985 132.272 19.1921C132.272 20.0857 132.762 20.8168 133.362 20.8168C133.962 20.8168 134.452 23.4976 134.452 26.7741C134.452 35.3222 138.656 39.2616 143.785 35.5204C145.829 34.0289 145.798 33.938 142.903 32.8386C140.181 31.8074 139.904 31.1987 139.904 26.2596C139.904 21.1288 140.065 20.8168 142.72 20.8168C146.136 20.8168 145.762 18.2736 142.272 17.7624C140.587 17.5165 139.904 16.6576 139.904 14.7838C139.904 12.3055 137.901 11.2527 136.27 12.8742ZM65.7612 17.5674C65.7612 20.5396 66.0774 20.8168 69.4607 20.8168C73.2998 20.8168 74.9517 18.956 73.7883 15.9427C73.4001 14.9397 71.7439 14.318 69.4607 14.318C66.0774 14.318 65.7612 14.5953 65.7612 17.5674ZM158.574 17.8382C154.848 26.903 154.763 26.2325 159.63 26.2325C164.461 26.2325 164.498 26.0343 161.165 18.109L159.798 14.8596L158.574 17.8382ZM83.2066 24.9425C83.2066 33.8903 84.6447 36.3198 89.8413 36.1562C91.8889 36.0912 95.16 36.0252 97.1084 36.0089L100.652 35.9797V26.773C100.652 17.6757 100.62 17.5674 97.9261 17.5674C95.3006 17.5674 95.2003 17.8252 95.2003 24.5352C95.2003 30.5402 94.9005 31.5962 93.0294 32.1865C89.4728 33.3087 88.6583 31.8843 88.6583 24.5439C88.6583 17.8241 88.558 17.5674 85.9324 17.5674C83.2916 17.5674 83.2066 17.7981 83.2066 24.9425ZM124.639 26.7741C124.639 35.2583 124.811 35.9808 126.82 35.9808C128.83 35.9808 129.001 35.2583 129.001 26.7741C129.001 18.2899 128.83 17.5674 126.82 17.5674C124.811 17.5674 124.639 18.2899 124.639 26.7741ZM176.066 19.2972C172.399 21.848 173.401 25.2447 178.611 27.9255C184.565 30.9886 184.408 33.3379 178.268 33.0606C173.011 32.8234 172.443 34.6604 177.278 36.2613C181.724 37.7333 186.243 35.1652 186.243 31.1651C186.243 28.5743 185.457 27.5973 181.901 25.7635C177.015 23.2452 177.007 21.4451 181.882 21.1808C187.285 20.8872 187.414 20.8093 185.217 19.1575C182.465 17.0898 179.165 17.1407 176.066 19.2972ZM192.479 19.0156C189.115 20.871 190.401 21.7938 195.416 21.1255C198.634 20.6966 199.704 20.9826 200.258 22.4188C201.296 25.1039 200.44 25.8653 195.504 26.6495C192.172 27.1792 190.769 28.0435 189.795 30.1686C188.652 32.6599 188.806 33.2296 191.127 35.0969C192.854 36.4855 194.517 36.9545 195.994 36.466C197.227 36.0587 199.587 35.763 201.236 35.8096C204.206 35.893 204.234 35.828 204.234 28.897C204.234 23.3438 203.784 21.4526 202.053 19.7337C199.575 17.2717 196.113 17.0118 192.479 19.0156ZM208.595 26.7741C208.595 35.1868 208.78 35.9808 210.726 35.9808C212.598 35.9808 212.897 35.0926 213.179 28.6696C213.488 21.679 213.621 21.3584 216.228 21.3584C218.835 21.3584 218.968 21.679 219.276 28.6696C219.519 34.1979 219.985 35.9808 221.184 35.9808C222.372 35.9808 222.77 34.5391 222.77 30.2304C222.77 23.7836 224.599 20.3836 227.748 20.9815C229.544 21.3216 229.905 22.4632 230.18 28.6804C230.423 34.199 230.888 35.9808 232.088 35.9808C234.438 35.9808 234.328 21.6227 231.96 19.269C229.779 17.1038 225.626 17.0779 223.837 19.2192C222.606 20.6923 222.232 20.6695 220.379 19.0026C218.657 17.4548 217.745 17.3411 215.083 18.3397C213.302 19.0069 211.866 19.1044 211.866 18.5563C211.866 18.0126 211.13 17.5674 210.231 17.5674C208.905 17.5674 208.595 19.3124 208.595 26.7741ZM45.3272 22.3321C42.0965 25.718 37.8431 26.4026 32.5059 24.3944C25.6172 21.8025 21.6549 21.5371 17.9848 23.4229C13.2408 25.8599 6.70203 25.6303 3.21404 22.904L0.341003 20.6598V28.3197V35.9808H24.3284H48.3158V27.8572C48.3158 23.3893 48.1937 19.7424 48.0432 19.7521C47.8928 19.7629 46.6705 20.9241 45.3272 22.3321ZM65.7612 28.3988C65.7612 31.6428 65.9258 31.7652 69.85 31.4424C73.3947 31.1511 73.9387 30.746 73.9387 28.3988C73.9387 26.0516 73.3947 25.6465 69.85 25.3552C65.9258 25.0324 65.7612 25.1548 65.7612 28.3988ZM193.917 29.8589C191.472 31.6363 192.564 33.8145 195.903 33.8145C198.621 33.8145 200.963 31.9591 200.963 29.8069C200.963 27.9645 196.481 27.997 193.917 29.8589Z" fill="white"/>
</svg>
