<svg width="87" height="92" viewBox="0 0 87 92" fill="none" xmlns="http://www.w3.org/2000/svg">
<path fill-rule="evenodd" clip-rule="evenodd" d="M22.102 1.75819C21.1251 3.32009 21.1733 3.46583 22.5326 3.0623C23.3743 2.81209 25.1051 2.3597 26.3792 2.05642C29.2143 1.38161 28.6115 0 25.4834 0C24.0852 0 22.7766 0.680698 22.102 1.75819ZM13.2986 2.66382C10.7556 3.59051 10.1722 5.05469 12.3462 5.05469C13.4683 5.05469 13.5265 5.28299 12.6653 6.31836C11.8177 7.33772 11.8388 7.57866 12.7734 7.5635C14.8884 7.52896 18.0283 4.51468 17.4668 3.0564C16.8724 1.50882 16.5508 1.4785 13.2986 2.66382ZM4.44027 8.63509C2.98387 10.1414 1.38563 12.4505 0.888344 13.7673C-0.865247 18.4083 3.29964 22.8244 10.5546 24.0165L13.9318 24.5708L10.6306 21.7015C7.68741 19.1438 7.38853 18.5339 7.87907 16.0849C8.18217 14.5735 9.19954 12.2585 10.1409 10.94C11.778 8.64604 11.2419 6.79855 9.28819 8.00325C8.82383 8.28969 8.4439 7.93249 8.4439 7.21051C8.4439 5.22739 7.36236 5.61239 4.44027 8.63509ZM24.9422 8.36804C24.6365 8.86255 23.4993 9.26693 22.4152 9.26693C20.5046 9.26693 18.8084 11.512 19.9372 12.5466C20.2445 12.828 20.665 12.5845 20.8718 12.0049C21.0795 11.4261 22.1788 10.9518 23.3161 10.9518C24.4525 10.9518 25.6075 10.3672 25.8827 9.65193C26.4796 8.10014 25.7366 7.08583 24.9422 8.36804ZM29.9463 13.9004C28.7972 19.0528 28.2417 20.2188 26.9339 20.2188C26.0516 20.2188 25.3297 20.5979 25.3297 21.0612C25.3297 21.5245 26.2534 21.9036 27.383 21.9036C29.2573 21.9036 29.5604 21.3367 30.8699 15.3747C31.6585 11.7833 32.4665 8.5618 32.6657 8.21387C32.865 7.86594 32.6514 7.58203 32.1912 7.58203C31.7311 7.58203 30.7213 10.4253 29.9463 13.9004ZM42.2155 8.42448C42.2155 8.88783 41.2539 9.26693 40.0786 9.26693C38.9025 9.26693 37.7163 9.85158 37.441 10.5668C36.8332 12.1473 37.8514 13.3857 38.6729 12.0655C38.9962 11.5466 40.2061 10.9889 41.3628 10.8263C43.3874 10.5415 44.9915 7.58203 43.1214 7.58203C42.6233 7.58203 42.2155 7.96113 42.2155 8.42448ZM53.1913 8.36888C53.1913 8.80105 52.1756 9.27535 50.9345 9.42194C49.6934 9.56852 48.492 10.2568 48.264 10.9518C47.9145 12.0217 48.0605 12.0428 49.2138 11.0925C49.9636 10.475 51.3085 10.202 52.2018 10.4843C53.3753 10.8566 53.9503 10.5247 54.2736 9.29051C54.5202 8.35119 54.3775 7.58203 53.9562 7.58203C53.5357 7.58203 53.1913 7.93586 53.1913 8.36888ZM65.3634 8.72523C65.0704 9.48681 64.1307 10.1094 63.2746 10.1094C62.047 10.1094 61.5092 11.1742 60.7223 15.1641C59.9296 19.1851 59.4027 20.2188 58.1473 20.2188C57.2785 20.2188 56.5684 20.5979 56.5684 21.0612C56.5684 21.5245 57.4752 21.9036 58.5838 21.9036C60.3948 21.9036 60.7038 21.3493 61.6342 16.4277C62.481 11.9501 62.9648 10.9518 64.2895 10.9518C65.9037 10.9518 67.3635 8.80611 66.4019 7.84656C66.1233 7.56855 65.6555 7.96366 65.3634 8.72523ZM75.6055 11.373C75.8503 13.6898 76.2564 16.6282 76.508 17.902C76.8896 19.8329 76.6735 20.2188 75.2095 20.2188C74.2445 20.2188 73.4542 20.5979 73.4542 21.0612C73.4542 21.5245 74.4412 21.9036 75.6477 21.9036C77.8344 21.9036 77.8395 21.8876 77.2459 16.7841C76.9184 13.9678 76.3147 10.6511 75.9044 9.41267C75.3547 7.75052 75.2762 8.26441 75.6055 11.373ZM3.63651 10.6553C2.0999 11.2736 3.33594 13.4792 5.21871 13.4792C6.3146 13.4792 6.78655 13.0015 6.60588 12.0748C6.30869 10.5441 5.21364 10.0209 3.63651 10.6553ZM55.5663 10.6848C56.175 10.9282 56.9036 10.8979 57.1839 10.6182C57.4642 10.3385 56.9661 10.1397 56.0762 10.1759C55.0926 10.2164 54.8925 10.416 55.5663 10.6848ZM70.2316 12.8195C69.0496 13.999 68.9271 15.1641 69.9867 15.1641C70.7601 15.1641 72.0341 12.6232 71.5183 12.1093C71.3604 11.951 70.7812 12.2711 70.2316 12.8195ZM23.219 14.3216C22.9319 14.785 21.8175 15.1641 20.7418 15.1641C19.2449 15.1641 18.6674 15.7563 18.2799 17.6914C17.9168 19.501 17.2878 20.2188 16.0636 20.2188C15.1231 20.2188 14.3539 20.6231 14.3539 21.1168C14.3539 21.6113 15.3966 21.8952 16.6715 21.7486C18.5045 21.538 19.0794 20.9534 19.4197 18.9551C19.7599 16.9568 20.3349 16.3721 22.1678 16.1615C23.4934 16.009 24.4854 15.3772 24.4854 14.6872C24.4854 13.2778 23.9594 13.1262 23.219 14.3216ZM41.3712 14.3216C41.3712 14.785 40.2314 15.1641 38.8383 15.1641C37.0172 15.1641 36.3055 15.5668 36.3055 16.5962C36.3055 17.7099 36.5309 17.8035 37.3186 17.0174C37.8759 16.4614 39.2056 16.0065 40.2736 16.0065C41.4371 16.0065 42.2155 15.5002 42.2155 14.7428C42.2155 14.0478 42.0255 13.4792 41.7934 13.4792C41.5612 13.4792 41.3712 13.8583 41.3712 14.3216ZM53.3061 16.9568C53.1263 19.1042 50.8095 20.5355 46.5526 21.1311L42.6376 21.6787L46.9089 21.7908C52.0456 21.9264 54.353 20.5397 53.8085 17.6442C53.5957 16.512 53.3694 16.202 53.3061 16.9568ZM2.99232 17.6333C2.36754 18.6417 3.95565 19.64 5.08024 18.9467C6.025 18.3645 5.40445 16.849 4.22245 16.849C3.81296 16.849 3.25911 17.2019 2.99232 17.6333ZM67.0055 18.9551C66.7379 19.6501 65.8227 20.2188 64.9708 20.2188C64.1189 20.2188 63.1877 20.5979 62.9006 21.0612C62.0572 22.4234 66.3875 22.0309 67.5442 20.64C68.1225 19.945 69.5207 19.3763 70.652 19.3763C71.8087 19.3763 72.4808 19.0073 72.1878 18.5339C71.3798 17.2289 67.5493 17.5406 67.0055 18.9551ZM39.6826 19.3763C39.6826 19.8396 37.9729 20.2188 35.8833 20.2188C33.7878 20.2188 32.084 20.6164 32.084 21.105C32.084 21.645 33.814 21.8918 36.5089 21.7368C39.9283 21.5405 40.9972 21.148 41.2142 20.0081C41.3687 19.1977 41.0875 18.5339 40.5886 18.5339C40.0904 18.5339 39.6826 18.913 39.6826 19.3763ZM49.392 27.4116C47.9989 27.5683 39.2605 28.1226 29.9733 28.6432C11.5374 29.6769 5.7523 30.826 2.13536 34.1714C-0.229496 36.3575 -0.235406 36.3904 0.262725 44.509C1.07324 57.7254 3.43303 80.0671 4.24186 82.1901C4.65388 83.2718 5.9887 84.8084 7.20786 85.6053C9.26455 86.9507 11.1355 86.9836 33.2078 86.0619C68.044 84.6079 75.711 83.5624 79.1228 79.7975C82.2365 76.362 82.7414 72.8532 82.7414 54.6504C82.7414 28.222 82.3243 27.634 63.3228 27.3172C57.0539 27.2119 50.785 27.2549 49.392 27.4116ZM83.9994 35.804C84.1953 38.1208 84.6124 47.8123 84.9281 57.3412C85.4482 73.0495 85.3587 74.9669 83.9716 77.8843C81.1373 83.8429 74.8642 85.3459 46.9098 86.7629C37.1869 87.2557 25.789 88.2161 21.5811 88.8968C11.767 90.4856 8.9758 90.4595 5.65774 88.7477C3.15695 87.4579 3.04128 87.457 4.10931 88.7418C5.95155 90.9574 10.8096 91.8142 16.8868 90.9953C24.9447 89.9094 39.8422 88.6297 56.2907 87.6104C77.0653 86.3223 82.4577 84.6113 85.0252 78.4926C86.1279 75.865 86.2309 72.6081 85.7108 56.8652C85.3748 46.6716 84.7719 36.815 84.3717 34.9616C83.6676 31.7013 83.6558 31.7291 83.9994 35.804ZM8.93612 35.1722C8.32485 35.7821 8.27757 54.3126 8.8863 54.9192C9.12862 55.1618 10.2473 55.1845 11.3719 54.9706C12.9271 54.674 13.4776 53.9622 13.6743 51.9967C14.0399 48.3321 15.7622 48.2175 17.4483 51.7457C18.4876 53.92 19.4323 54.7591 20.8423 54.7591C21.9171 54.7591 22.7968 54.6622 22.7968 54.5426C22.7968 54.4238 22.4414 53.0902 22.0066 51.578C21.3244 49.204 21.4966 48.5511 23.273 46.7786C25.7518 44.3052 26.0288 39.74 23.8522 37.2472C22.6938 35.9211 20.9749 35.4612 15.9015 35.1183C12.342 34.8773 9.20714 34.9018 8.93612 35.1722ZM59.1013 38.3314V42.1224H55.893C54.1284 42.1224 52.2288 42.5773 51.6716 43.1333C50.3198 44.4821 50.3528 53.4609 51.7138 54.5704C52.2946 55.043 54.7414 55.3968 57.1518 55.3556L61.5345 55.2814L61.9854 50.1762C62.2336 47.3683 62.5654 42.702 62.7225 39.8057C62.9952 34.7821 62.9192 34.5404 61.055 34.5404C59.3022 34.5404 59.1013 34.9304 59.1013 38.3314ZM64.167 36.6145C64.167 37.2918 65.0713 40.686 66.1756 44.1577C67.2808 47.6295 67.9773 50.6766 67.724 50.9293C67.4699 51.1821 66.5665 51.3893 65.7146 51.3893C64.7302 51.3893 64.167 52.0018 64.167 53.0742C64.167 54.3539 64.726 54.7557 66.4888 54.7465C69.2421 54.7313 70.3616 54.0818 71.5512 51.8105C72.4031 50.1855 76.8314 37.4519 76.8314 36.6288C76.8314 36.4072 75.8993 36.2253 74.7603 36.2253C73.0861 36.2253 72.5204 36.831 71.8104 39.3844C71.3266 41.1224 70.929 43.0398 70.9264 43.6464C70.9163 46.0052 69.3493 43.6211 68.8081 40.4223C68.4721 38.4367 67.5949 36.7029 66.6796 36.2143C64.5858 35.0964 64.167 35.1629 64.167 36.6145ZM14.3539 42.1224C14.3539 45.0769 14.5929 45.4922 16.2958 45.4922C18.7409 45.4922 20.264 44.0078 20.264 41.6228C20.264 39.7231 18.8135 38.7526 15.9733 38.7526C14.6469 38.7526 14.3539 39.3625 14.3539 42.1224ZM38.5572 39.3145C38.2473 39.6229 37.9941 40.6035 37.9941 41.4931C37.9941 42.8503 38.5032 43.0643 41.1601 42.8267C44.7957 42.5015 46.0064 44.0819 42.4527 44.5133C39.0232 44.9303 37.9941 46.1451 37.9941 49.7777C37.9941 53.4693 40.1554 55.2806 43.3029 54.2275C44.3296 53.8838 46.0258 53.7002 47.0702 53.8198C48.9006 54.0296 48.9698 53.7911 48.9698 47.2672C48.9698 41.4358 48.7436 40.376 47.337 39.6245C45.5192 38.654 39.4336 38.4392 38.5572 39.3145ZM27.0715 41.1805C26.5776 42.1013 26.174 44.9555 26.174 47.5233C26.174 51.4946 26.4703 52.3868 28.1572 53.4895C30.696 55.1492 36.5782 54.1483 36.9961 51.9841C37.2207 50.8224 36.6246 50.5469 33.884 50.5469C32.0199 50.5469 30.2604 50.1678 29.9733 49.7044C29.6643 49.2049 30.6335 48.862 32.3533 48.862C36.3139 48.862 37.6378 47.1004 36.655 43.1333C35.9154 40.1469 35.7178 40.0053 31.9261 39.7619C28.6866 39.5529 27.8068 39.8107 27.0715 41.1805ZM29.5511 44.1788C29.5511 45.7736 30.7602 46.4652 32.4302 45.8258C34.5713 45.0061 34.0225 42.9648 31.6619 42.9648C30.387 42.9648 29.5511 43.4459 29.5511 44.1788ZM54.0356 48.3001C54.0356 51.7398 54.3589 52.0978 57.0108 51.5915C58.745 51.2613 59.1013 50.7069 59.1013 48.3422C59.1013 45.7373 58.8835 45.4922 56.5684 45.4922C54.261 45.4922 54.0356 45.7416 54.0356 48.3001ZM41.3712 48.862C41.3712 49.985 41.9344 50.5469 43.0598 50.5469C44.1852 50.5469 44.7484 49.985 44.7484 48.862C44.7484 47.739 44.1852 47.1771 43.0598 47.1771C41.9344 47.1771 41.3712 47.739 41.3712 48.862ZM66.6999 66.9746V77.5052H69.2167C72.2528 77.5052 72.3904 77.0334 72.859 65.0791L73.1976 56.444H69.9487H66.6999V66.9746ZM9.58031 64.2366C9.87835 68.0588 10.1249 72.6089 10.1274 74.346C10.1316 77.1345 10.3748 77.5052 12.1993 77.5052C14.0973 77.5052 14.2864 77.1438 14.5211 73.0824L14.7761 68.6595L16.3211 73.0824C17.6695 76.9399 18.1549 77.5027 20.1204 77.485C22.0015 77.469 22.72 76.7369 24.4635 73.0621L26.5531 68.6595L26.8266 72.9947C27.0436 76.4252 27.4379 77.4184 28.7187 77.752C30.783 78.2912 30.9746 77.5499 31.6813 66.2905L32.2537 57.1811L28.614 57.4448L24.9743 57.7077L22.7512 64.8685L20.5291 72.0293L18.2343 64.6579L15.9403 57.2865H12.4889H9.03828L9.58031 64.2366ZM37.3887 58.1912C35.1513 58.8618 34.5038 59.6318 33.7127 62.5619C32.4209 67.3503 33.0887 74.5128 35.0272 76.6501C37.9299 79.8506 47.2796 78.4302 47.2829 74.7883C47.2838 73.0419 46.8971 72.8717 42.9264 72.8717C36.8847 72.8717 36.6567 71.1262 42.6013 70.3857L47.2812 69.8019V65.39C47.2812 62.9637 46.8068 60.342 46.2259 59.5653C44.8826 57.7658 40.8841 57.1441 37.3887 58.1912ZM49.6537 59.4128C49.4105 59.6546 49.3953 60.8146 49.6208 61.9898C50.0041 63.989 50.3072 64.1086 54.3547 63.8651C57.7521 63.6604 58.6792 63.8761 58.6792 64.8685C58.6792 65.7817 57.7023 66.1465 55.1585 66.1844C50.4473 66.2535 48.9698 67.6351 48.9698 71.9712C48.9698 76.4479 50.3832 78.3906 53.6151 78.3552C55.0073 78.3401 57.9514 78.3477 60.1567 78.3712L64.167 78.415V70.0167C64.167 59.5206 63.7517 58.9714 55.8043 58.9714C52.6644 58.9714 49.8969 59.1702 49.6537 59.4128ZM38.5572 62.9031C38.2473 63.2114 37.9941 64.1591 37.9941 65.0092C37.9941 66.1633 38.634 66.5534 40.5269 66.5534C42.6655 66.5534 43.0598 66.2257 43.0598 64.4473C43.0598 62.8028 42.6284 62.3411 41.0901 62.3411C40.006 62.3411 38.8662 62.5939 38.5572 62.9031ZM53.3432 71.8187C53.5552 73.3031 54.1622 73.7142 56.1463 73.7142C58.1304 73.7142 58.7374 73.3031 58.9493 71.8187C59.1866 70.1506 58.8497 69.9232 56.1463 69.9232C53.4429 69.9232 53.106 70.1506 53.3432 71.8187Z" fill="white"/>
</svg>
