<svg width="21" height="22" viewBox="0 0 21 22" fill="none" xmlns="http://www.w3.org/2000/svg">
<path fill-rule="evenodd" clip-rule="evenodd" d="M3.39081 6.63594C3.39081 6.4597 3.4569 6.29068 3.57453 6.16606C3.69217 6.04145 3.85172 5.97144 4.01808 5.97144H17.3999C17.5663 5.97144 17.7258 6.04145 17.8434 6.16606C17.9611 6.29068 18.0272 6.4597 18.0272 6.63594C18.0272 6.81218 17.9611 6.9812 17.8434 7.10582C17.7258 7.23044 17.5663 7.30044 17.3999 7.30044H4.01808C3.85172 7.30044 3.69217 7.23044 3.57453 7.10582C3.4569 6.9812 3.39081 6.81218 3.39081 6.63594ZM3.39081 11.066C3.39081 10.8897 3.4569 10.7207 3.57453 10.5961C3.69217 10.4715 3.85172 10.4015 4.01808 10.4015H13.2181C13.3844 10.4015 13.544 10.4715 13.6616 10.5961C13.7793 10.7207 13.8454 10.8897 13.8454 11.066C13.8454 11.2422 13.7793 11.4112 13.6616 11.5358C13.544 11.6605 13.3844 11.7305 13.2181 11.7305H4.01808C3.85172 11.7305 3.69217 11.6605 3.57453 11.5358C3.4569 11.4112 3.39081 11.2422 3.39081 11.066ZM3.39081 15.496C3.39081 15.3198 3.4569 15.1507 3.57453 15.0261C3.69217 14.9015 3.85172 14.8315 4.01808 14.8315H8.1999C8.36626 14.8315 8.52581 14.9015 8.64345 15.0261C8.76108 15.1507 8.82717 15.3198 8.82717 15.496C8.82717 15.6722 8.76108 15.8413 8.64345 15.9659C8.52581 16.0905 8.36626 16.1605 8.1999 16.1605H4.01808C3.85172 16.1605 3.69217 16.0905 3.57453 15.9659C3.4569 15.8413 3.39081 15.6722 3.39081 15.496Z" fill="black"/>
</svg>
