<svg width="155" height="78" viewBox="0 0 155 78" fill="none" xmlns="http://www.w3.org/2000/svg">
<g filter="url(#filter0_d_1547_292)">
<path fill-rule="evenodd" clip-rule="evenodd" d="M22.6286 10.2473C22.0604 14.2766 21.3749 16.2048 20.0836 17.4057C18.8497 18.5532 17.095 19.1359 13.1321 19.7143C12.4667 19.8113 11.9584 19.9034 12.0027 19.9189C12.0469 19.9343 12.3968 19.9877 12.7802 20.0374C13.9549 20.19 15.6361 20.4882 16.4373 20.6862C19.4033 21.419 20.7395 22.4951 21.6167 24.8571C21.9957 25.8775 22.4382 28.0051 22.7056 30.0928C22.7577 30.4995 22.8105 30.8219 22.8231 30.8094C22.8356 30.7968 22.9283 30.2096 23.0291 29.5045C23.8021 24.0972 24.7831 22.296 27.5568 21.1913C28.5955 20.7776 30.997 20.2609 33.0491 20.0095C33.3145 19.977 33.5679 19.9364 33.6121 19.9193C33.6564 19.9021 33.3065 19.8321 32.8346 19.7635C28.4058 19.1201 26.6539 18.5227 25.4019 17.229C24.1847 15.9711 23.6062 14.2756 23.0251 10.2633C22.926 9.57899 22.8364 9.01054 22.826 9.00014C22.8157 8.9897 22.7268 9.55094 22.6286 10.2473ZM38.5615 22.1925C34.6233 22.6917 31.0827 24.5893 28.913 27.3638C26.5158 30.4292 25.7169 34.8235 26.8236 38.8571C28.1489 43.6879 32.3049 47.1572 37.9158 48.1169C42.0087 48.8169 46.5795 47.6403 49.7529 45.0697C51.8111 43.4025 53.2336 41.2186 53.8846 38.7269C54.2284 37.4112 54.2819 36.9356 54.2819 35.1956C54.2819 33.4249 54.2212 32.9092 53.855 31.5675C52.9397 28.2139 50.6325 25.4561 47.3452 23.7863C45.825 23.0141 44.3495 22.5405 42.5306 22.2409C41.7896 22.1188 39.3752 22.0894 38.5615 22.1925ZM67.0885 22.1667C65.5954 22.2776 63.8933 22.6254 62.7554 23.0521C60.1164 24.0417 58.4883 25.6823 57.9223 27.9224C57.5311 29.4705 57.6604 31.0962 58.2758 32.3687C59.1349 34.1447 60.814 35.2839 63.8368 36.141C64.8711 36.4344 66.0315 36.6727 68.4164 37.0816C72.4318 37.7699 73.6167 38.0884 74.7115 38.7737C75.6938 39.3885 76.0931 40.2012 75.9673 41.3298C75.8797 42.1163 75.6231 42.6687 75.1151 43.1648C74.2353 44.024 72.9021 44.4237 70.9059 44.4267C69.906 44.4282 69.547 44.3805 68.4929 44.1063C67.7217 43.9056 67.275 43.7491 65.7314 43.1391C63.5063 42.2596 62.5618 42.0151 61.3881 42.0144C60.8099 42.0141 60.5692 42.0385 60.1924 42.1359C59.5735 42.2957 59.0432 42.5188 58.5541 42.8249L58.1568 43.0736L58.1903 43.4288C58.2086 43.6242 58.2238 44.6526 58.224 45.714L58.2244 47.6439L58.5595 47.3097C58.9893 46.8811 59.4451 46.5548 59.9451 46.318C60.5228 46.0444 60.8911 45.9649 61.5811 45.9649C62.6297 45.9649 63.2571 46.1339 65.4505 47.0075C66.1609 47.2905 66.9828 47.6061 67.2767 47.7089C67.9744 47.9528 69.1657 48.2505 69.8067 48.3413C70.4286 48.4293 72.047 48.4279 72.7826 48.3387C76.5462 47.8823 79.2454 46.1019 80.1895 43.4533C80.4684 42.6708 80.5834 42.0591 80.6183 41.1725C80.7372 38.1513 79.2699 36.1102 76.0751 34.853C74.6072 34.2754 73.0893 33.9191 69.619 33.3378C68.3213 33.1204 67.0666 32.9028 66.8307 32.8542C64.2691 32.3262 62.9937 31.6862 62.5014 30.6813C62.3371 30.3462 62.3265 30.2898 62.3276 29.7581C62.3289 29.1538 62.412 28.8002 62.6518 28.3786C63.7572 26.4349 67.2866 25.6437 71.6168 26.3686C74.0981 26.784 76.5188 27.7476 77.778 28.8212C77.9302 28.951 78.0673 29.0571 78.0826 29.0571C78.098 29.0571 78.6318 28.3045 79.2689 27.3845L80.4273 25.7119L80.3048 25.6059C79.93 25.2814 78.7847 24.5761 78.0376 24.2096C75.9599 23.1904 73.5584 22.532 70.8791 22.2469C69.9099 22.1438 67.9547 22.1025 67.0885 22.1667ZM84.6598 35.1956V47.6341H86.8315H89.0032V46.2907C89.0032 44.7786 89.0752 44.0567 89.3218 43.0961C89.9627 40.6003 91.6476 38.3841 94.4795 36.3125C94.793 36.0832 95.0645 35.8956 95.0828 35.8956C95.101 35.8956 95.116 35.9308 95.116 35.9739C95.116 36.1231 95.5928 37.7026 95.8401 38.3725C96.3698 39.8079 97.2985 41.4916 98.1714 42.5995C98.6687 43.2306 99.7258 44.2623 100.371 44.7463C102.205 46.122 104.367 46.9911 106.949 47.3904C108.345 47.6064 109.041 47.6341 113.063 47.6341H116.886V36.8379C116.886 28.2367 116.9 26.0418 116.953 26.0421C117.196 26.0435 118.009 26.2982 118.417 26.5006C119.322 26.9493 119.923 27.5634 120.444 28.5725C121.21 30.0581 121.475 31.5183 121.766 35.8687C121.94 38.4675 122.069 39.6232 122.331 40.9374C123.016 44.3737 124.601 46.3804 127.274 47.1981C128.165 47.4705 129.253 47.6365 130.115 47.6318L130.533 47.6295L134.581 39.3644L138.63 31.0993L138.643 39.3667L138.657 47.6341H140.828H143V35.195V22.7559L140.823 22.77L138.646 22.784L133.499 32.9071C130.668 38.4748 128.342 43.0404 128.33 43.0527C128.236 43.1475 127.346 42.3451 126.997 41.8507C126.019 40.467 125.608 38.6656 125.307 34.4418C125.112 31.7117 124.964 30.3995 124.716 29.1939C124.045 25.931 122.574 24.0346 120.08 23.2176C118.91 22.8341 118.061 22.7571 115 22.7571H112.543V33.2841V43.811L111.296 43.8105C110.611 43.8101 109.76 43.7847 109.406 43.7539C103.765 43.2632 100.391 40.571 98.8799 35.3555C98.5548 34.2336 98.4686 33.797 98.5561 33.7158C98.5958 33.679 99.1953 33.3085 99.8883 32.8924C102.741 31.1801 104 30.2673 105.251 29.0068C105.708 28.5458 106.221 27.9717 106.391 27.731C107.014 26.8474 107.454 25.8372 107.661 24.8134C107.782 24.2139 107.856 23.2407 107.802 22.9533L107.766 22.7571H105.597H103.427V22.9955C103.427 23.6969 103.182 24.6561 102.818 25.38C102.237 26.5344 101.08 27.722 99.4325 28.8542C98.5866 29.4357 97.9592 29.8163 95.8131 31.05C94.7661 31.6519 93.632 32.314 93.2929 32.5215C91.8586 33.3988 90.398 34.4468 89.499 35.2435L89.0032 35.683V29.22V22.7571H86.8315H84.6598V35.1956ZM39.532 26.208C37.8352 26.331 35.9995 26.9641 34.5773 27.9166C32.413 29.3662 31.1153 31.5079 30.8196 34.1187C30.7335 34.8796 30.7867 36.3509 30.9251 37.0345C31.4752 39.7508 33.2053 41.9296 35.8106 43.1869C38.7361 44.5987 42.1094 44.5707 45.0067 43.1104C46.0056 42.607 46.6379 42.1476 47.4504 41.3352C48.1987 40.5867 48.6738 39.9253 49.0776 39.0693C49.9093 37.3061 50.1279 35.2305 49.6991 33.1665C48.997 29.7863 46.1738 27.1547 42.4299 26.3906C41.8869 26.2797 40.4846 26.1327 40.2076 26.1576C40.1634 26.1615 39.8593 26.1842 39.532 26.208ZM83.5804 54.742C82.5089 54.913 81.6671 55.5009 81.254 56.3664C80.9362 57.0325 80.9402 57.3463 81.2713 57.7148C81.517 57.9882 81.729 58.0803 82.1132 58.0803C82.5935 58.0803 82.9025 57.8814 83.0755 57.461C83.2716 56.9845 83.667 56.7365 84.2308 56.7365C84.7548 56.7365 85.1743 56.9736 85.3894 57.3913C85.5703 57.7425 85.5279 58.7103 85.2991 59.4543C85.1064 60.0806 84.3086 61.1444 83.4725 61.8899C82.9861 62.3236 82.0539 63.0267 81.4301 63.4305C80.8845 63.7836 80.6884 64.0356 80.6505 64.4324C80.6095 64.8611 80.6741 65.0659 80.9406 65.3519C81.3466 65.7878 81.2864 65.7803 84.3548 65.7803C86.2398 65.7803 87.0954 65.7617 87.2422 65.7175C87.5476 65.6256 87.859 65.2652 87.9062 64.9491C87.9777 64.4704 87.6581 63.9742 87.1949 63.8451C87.0768 63.8121 86.3904 63.7885 85.548 63.7883L84.1038 63.788L84.9625 62.913C86.2235 61.628 86.7593 60.9043 87.1868 59.9083C87.5125 59.1498 87.6286 58.6347 87.6289 57.9457C87.6293 57.2688 87.5447 56.9108 87.2511 56.3478C86.8776 55.6313 86.1038 55.0489 85.2228 54.8212C84.8244 54.7183 83.9832 54.6777 83.5804 54.742ZM103.474 54.742C102.403 54.913 101.561 55.5009 101.148 56.3664C100.83 57.0325 100.834 57.3463 101.165 57.7148C101.411 57.9882 101.623 58.0803 102.007 58.0803C102.487 58.0803 102.796 57.8814 102.969 57.461C103.165 56.9845 103.561 56.7365 104.124 56.7365C104.648 56.7365 105.068 56.9736 105.283 57.3913C105.464 57.7425 105.422 58.7103 105.193 59.4543C105 60.0806 104.202 61.1444 103.366 61.8899C102.88 62.3236 101.947 63.0267 101.324 63.4305C100.778 63.7836 100.582 64.0356 100.544 64.4324C100.503 64.8611 100.568 65.0659 100.834 65.3519C101.24 65.7878 101.18 65.7803 104.248 65.7803C106.133 65.7803 106.989 65.7617 107.136 65.7175C107.441 65.6256 107.753 65.2652 107.8 64.9491C107.871 64.4704 107.552 63.9742 107.088 63.8451C106.97 63.8121 106.284 63.7885 105.442 63.7883L103.997 63.788L104.856 62.913C106.117 61.628 106.653 60.9043 107.08 59.9083C107.406 59.1498 107.522 58.6347 107.523 57.9457C107.523 57.2688 107.438 56.9108 107.145 56.3478C106.771 55.6313 105.997 55.0489 105.116 54.8212C104.718 54.7183 103.877 54.6777 103.474 54.742ZM51.8719 54.9353C51.6011 55.0349 51.3746 55.2481 51.248 55.5226C51.1538 55.7269 51.1487 55.9734 51.1487 60.3149C51.1487 64.627 51.1544 64.9043 51.2464 65.1077C51.4314 65.5166 51.8568 65.781 52.326 65.7788C52.7231 65.777 53.2094 65.4178 53.3377 65.0319C53.4252 64.7684 53.4236 55.8885 53.336 55.5947C53.2987 55.47 53.1817 55.3003 53.0467 55.1753C52.7051 54.8591 52.3028 54.7769 51.8719 54.9353ZM56.3434 54.9223C55.6159 55.1864 55.3715 55.9924 55.8556 56.5312C56.1698 56.8808 56.2422 56.8956 57.6329 56.8956H58.8679V60.7699C58.8679 63.4463 58.8866 64.7324 58.9285 64.9296C59.0998 65.7363 60.1457 66.0556 60.7813 65.4951C61.1915 65.1335 61.1711 65.3729 61.1724 60.8937L61.1736 56.8956H62.4627C63.6363 56.8956 63.7701 56.8862 63.9573 56.7903C64.3907 56.5683 64.618 56.1018 64.5042 55.668C64.4186 55.3414 64.3052 55.1898 64.0213 55.0223L63.7742 54.8764L60.1548 54.8646C57.3052 54.8553 56.4945 54.8675 56.3434 54.9223ZM68.1844 54.9054C67.6279 55.0442 67.1009 55.4728 66.8625 55.9803L66.7234 56.2764L66.7249 60.261C66.7262 63.9395 66.7337 64.2671 66.8218 64.5247C67.0166 65.094 67.4818 65.5193 68.1068 65.6997C68.3785 65.7781 68.6631 65.7866 70.3589 65.7673C72.1254 65.747 72.337 65.7348 72.7099 65.6317C74.1514 65.2332 74.8965 64.2288 74.8998 62.6793C74.9009 62.1729 74.7486 61.5082 74.5559 61.178C74.3967 60.9052 74.0177 60.5471 73.7397 60.4069C73.5361 60.3041 73.15 60.1721 72.8363 60.0979C72.6764 60.0602 72.677 60.0594 72.9442 59.9662C73.3848 59.8125 73.6637 59.6484 73.9179 59.3931C74.3799 58.9292 74.6237 58.1327 74.5505 57.3264C74.4358 56.0632 73.8211 55.3482 72.5496 54.999C72.1758 54.8963 71.9717 54.8849 70.2624 54.8707C69.2215 54.8621 68.296 54.8775 68.1844 54.9054ZM93.5342 54.9255C91.6624 55.293 90.4584 56.7848 90.1051 59.1743C89.8299 61.0355 90.1809 62.9865 91.0193 64.2549C91.574 65.0942 92.4696 65.7258 93.3733 65.9152C94.2903 66.1073 95.3574 65.9677 96.155 65.5512C96.6614 65.2868 97.3364 64.6453 97.6272 64.1521C98.3982 62.8442 98.7066 61.0442 98.468 59.2439C98.2747 57.7859 97.7749 56.7023 96.9188 55.8858C96.4834 55.4703 95.8771 55.1313 95.3037 54.9824C94.8469 54.8638 93.9888 54.8362 93.5342 54.9255ZM110.692 54.9784C110.494 55.065 110.197 55.3951 110.151 55.5803C110.087 55.8363 110.16 56.2356 110.307 56.4281C110.59 56.8019 110.647 56.8118 112.659 56.8418L114.463 56.8687L112.967 58.4492C111.753 59.7309 111.471 60.0575 111.471 60.1774C111.471 60.4646 111.562 60.4897 112.704 60.5177C113.913 60.5473 114.111 60.596 114.519 60.9644C114.977 61.3777 115.158 62.0418 114.99 62.6973C114.787 63.4932 114.178 64.0039 113.432 64.003C112.854 64.0024 112.432 63.7567 112.136 63.2487C111.905 62.8527 111.62 62.6857 111.176 62.6876C110.581 62.6902 110.159 63.0491 110.098 63.6045C110.073 63.8315 110.096 63.9245 110.261 64.2647C110.617 64.9995 111.237 65.4946 112.17 65.7887C112.518 65.8986 112.677 65.9147 113.401 65.9139C114.191 65.9128 114.255 65.9046 114.694 65.7477C115.831 65.3418 116.578 64.5494 116.948 63.3572C117.053 63.0207 117.074 62.8366 117.074 62.2534C117.074 61.6326 117.057 61.5016 116.924 61.0957C116.738 60.5243 116.368 59.9695 115.949 59.6294C115.59 59.3386 114.967 59.0584 114.576 59.012C114.429 58.9945 114.3 58.9652 114.289 58.9467C114.277 58.9282 114.772 58.4676 115.389 57.9231C116.631 56.8253 116.725 56.7023 116.725 56.1769C116.725 55.6345 116.491 55.2642 116.002 55.0317L115.733 54.9044L113.294 54.906C111.398 54.9072 110.818 54.9234 110.692 54.9784ZM68.8415 58.1341V59.4264H70.0382C71.3601 59.4264 71.6278 59.3826 72.0386 59.0988C72.3382 58.8918 72.4877 58.5751 72.4877 58.1475C72.4877 57.6058 72.3181 57.3278 71.8369 57.0813C71.4759 56.8962 71.0358 56.8427 69.8737 56.8422L68.8415 56.8418V58.1341ZM93.7057 56.9703C92.8031 57.3074 92.3032 58.3085 92.1962 59.9932C92.1047 61.4336 92.4298 62.7836 93.0242 63.4311C93.3488 63.7847 93.6611 63.9177 94.2217 63.9409C94.6628 63.9592 94.7176 63.9492 95.0336 63.7929C95.451 63.5866 95.7161 63.2994 95.9512 62.7988C96.1914 62.2871 96.2857 61.8987 96.3601 61.1135C96.4295 60.3802 96.3636 59.3333 96.2115 58.7533C96.007 57.9736 95.5581 57.3131 95.055 57.0518C94.7592 56.8981 94.0186 56.8533 93.7057 56.9703ZM68.8657 61.0562C68.8513 61.0937 68.846 61.7419 68.8539 62.4966L68.8683 63.8687L69.8335 63.8841C71.3593 63.9083 72.0006 63.7821 72.4016 63.3787C72.845 62.9325 72.881 62.1033 72.4782 61.6126C72.2701 61.3591 71.745 61.1094 71.2812 61.0435C70.7065 60.9617 68.8981 60.9713 68.8657 61.0562Z" fill="#FFFC83"/>
</g>
<defs>
<filter id="filter0_d_1547_292" x="0.810512" y="-2.18949" width="153.379" height="79.379" filterUnits="userSpaceOnUse" color-interpolation-filters="sRGB">
<feFlood flood-opacity="0" result="BackgroundImageFix"/>
<feColorMatrix in="SourceAlpha" type="matrix" values="0 0 0 0 0 0 0 0 0 0 0 0 0 0 0 0 0 0 127 0" result="hardAlpha"/>
<feOffset/>
<feGaussianBlur stdDeviation="5.59474"/>
<feComposite in2="hardAlpha" operator="out"/>
<feColorMatrix type="matrix" values="0 0 0 0 0.447059 0 0 0 0 0.847059 0 0 0 0 0.729412 0 0 0 1 0"/>
<feBlend mode="normal" in2="BackgroundImageFix" result="effect1_dropShadow_1547_292"/>
<feBlend mode="normal" in="SourceGraphic" in2="effect1_dropShadow_1547_292" result="shape"/>
</filter>
</defs>
</svg>
